<?xml version="1.0" encoding="utf-8"?>
<!-- Generator: Adobe Illustrator 23.0.0, SVG Export Plug-In . SVG Version: 6.00 Build 0)  -->
<svg version="1.1" xmlns="http://www.w3.org/2000/svg" xmlns:xlink="http://www.w3.org/1999/xlink" x="0px" y="0px"
	 viewBox="0 0 223.78 229.29" style="enable-background:new 0 0 223.78 229.29;" xml:space="preserve">
<style type="text/css">
	.st0{fill:url(#SVGID_3_);}
	.st1{opacity:0.35;clip-path:url(#SVGID_5_);fill:#AAAAE8;}
	.st2{fill:#FFFFFF;}
	.st3{clip-path:url(#SVGID_11_);}
	.st4{fill:#FCFAFF;}
	.st5{clip-path:url(#SVGID_11_);fill:#E9E9FF;}
	.st6{fill:#E0E0E2;}
	.st7{fill:url(#SVGID_12_);}
	.st8{fill:url(#SVGID_13_);}
	.st9{opacity:0.35;fill:#AAAAE8;}
	.st10{opacity:0.09;fill:#AAAAE8;}
	.st11{opacity:0.2;}
	.st12{fill:#EEEDF3;}
	.st13{fill:#ED9E00;}
	.st14{fill:#FFBB33;}
	.st15{fill:#010080;}
	.st16{fill:#F8B7B0;}
	.st17{fill:#E49F98;}
	.st18{fill:#77D2FF;}
	.st19{fill:url(#SVGID_14_);}
	.st20{fill:#4003A9;}
	.st21{fill:url(#SVGID_15_);}
	.st22{fill:#EEFAFF;}
	.st23{fill:#C8C7D9;}
	.st24{opacity:0.1;fill:#3F3F3F;}
	.st25{fill:url(#SVGID_16_);}
	.st26{fill:#FF3131;}
	.st27{fill:#F8AA00;}
	.st28{fill:#FF3158;}
	.st29{fill:#FF7D43;}
	.st30{fill:url(#SVGID_17_);}
	.st31{fill:url(#SVGID_18_);}
	.st32{fill:#E9E9FF;}
	.st33{fill:url(#SVGID_19_);}
	.st34{fill:url(#SVGID_20_);}
	.st35{fill:url(#SVGID_21_);}
	.st36{fill:url(#SVGID_22_);}
	.st37{fill:url(#SVGID_23_);}
	.st38{fill:url(#SVGID_24_);}
	.st39{fill:url(#SVGID_25_);}
	.st40{fill:#3301A0;}
	.st41{fill:#FFF8FA;}
</style>
<g id="Background">
	<g>
		<g>
			<defs>
				<rect id="SVGID_1_" x="-365.48" y="753.11" width="500" height="500"/>
			</defs>
			<clipPath id="SVGID_2_">
				<use xlink:href="#SVGID_1_"  style="overflow:visible;"/>
			</clipPath>
		</g>
	</g>
	<g>
		<linearGradient id="SVGID_3_" gradientUnits="userSpaceOnUse" x1="-548.2458" y1="558.243" x2="417.7044" y2="1551.1908">
			<stop  offset="0" style="stop-color:#00FFFF"/>
			<stop  offset="0.3693" style="stop-color:#0071BC"/>
			<stop  offset="0.7613" style="stop-color:#9E005D"/>
			<stop  offset="1" style="stop-color:#ED1E79"/>
		</linearGradient>
		<rect x="-365.48" y="753.11" class="st0" width="500" height="500"/>
		<g>
			<defs>
				<rect id="SVGID_4_" x="-365.48" y="753.11" width="500" height="500"/>
			</defs>
			<clipPath id="SVGID_5_">
				<use xlink:href="#SVGID_4_"  style="overflow:visible;"/>
			</clipPath>
			<path class="st1" d="M-649.03,1525.79c-29.12,0-57.01-2.75-82.63-8.23c-45.72-9.77-79.97-27.4-99.05-50.98
				c-26.18-32.36-33.28-89.58-16.52-133.09c15.83-41.1,50.58-56.64,84.19-71.67c33.41-14.94,64.97-29.06,74.48-67.1
				c10.61-42.48-4.18-79.65-18.49-115.59c-15.87-39.88-30.86-77.55-12.32-120.43c17.34-40.1,59.68-71.52,119.23-88.48
				c32.3-9.2,66.27-10.42,100.96-3.61c27.72,5.44,47.81,14.42,56.38,18.26c65.55,29.33,124.58,97.07,157.91,181.21
				c16.61,41.93,26.09,86.6,27.42,129.19c1.45,46.36-6.38,89.68-23.26,128.76c-23.98,55.51-65.71,101.51-124.04,136.73
				c-50.6,30.55-111.7,51.41-176.7,60.32C-604.39,1524.23-627.06,1525.79-649.03,1525.79z M-543.05,863.38
				c-22.42,0-41.62,3.48-56.82,7.81c-59.25,16.88-101.37,48.1-118.58,87.91c-18.38,42.51-3.46,79.99,12.33,119.67
				c14.36,36.09,29.22,73.41,18.53,116.2c-9.62,38.52-41.4,52.73-75.04,67.77c-33.42,14.95-67.99,30.4-83.67,71.11
				c-16.64,43.21-9.61,100,16.36,132.1c18.93,23.4,52.98,40.91,98.48,50.63c44.84,9.59,96.66,10.8,149.84,3.51
				c143.17-19.63,255.3-93.06,299.96-196.45c32.39-74.99,30.87-168.73-4.17-257.19c-33.23-83.9-92.07-151.44-157.39-180.67
				C-480.66,869.03-514.47,863.38-543.05,863.38z"/>
			<path class="st1" d="M-13.05,1378.21c-29.12,0-57.01-2.75-82.63-8.23c-45.72-9.77-79.97-27.4-99.05-50.98
				c-26.18-32.36-33.28-89.58-16.52-133.09c15.83-41.1,50.58-56.64,84.19-71.67c33.41-14.94,64.97-29.06,74.48-67.1
				c10.61-42.48-4.18-79.65-18.49-115.59c-15.87-39.88-30.87-77.55-12.32-120.43c17.34-40.1,59.68-71.52,119.23-88.48
				c32.3-9.2,66.27-10.42,100.95-3.61c27.72,5.44,47.81,14.42,56.38,18.26l0,0c65.55,29.33,124.58,97.07,157.91,181.21
				c16.61,41.93,26.09,86.6,27.42,129.19c1.45,46.36-6.38,89.68-23.26,128.76c-23.98,55.51-65.71,101.51-124.04,136.73
				c-50.6,30.55-111.7,51.41-176.7,60.32C31.59,1376.65,8.91,1378.21-13.05,1378.21z M92.93,715.79c-22.42,0-41.61,3.48-56.82,7.81
				c-59.26,16.88-101.37,48.1-118.58,87.91c-18.38,42.51-3.46,79.99,12.33,119.67c14.36,36.09,29.22,73.41,18.53,116.2
				c-9.62,38.52-41.4,52.73-75.04,67.77c-33.42,14.95-67.99,30.4-83.67,71.12c-16.64,43.21-9.61,100,16.36,132.1
				c18.93,23.4,52.98,40.91,98.48,50.63c44.84,9.58,96.66,10.8,149.84,3.51c143.17-19.63,255.3-93.06,299.96-196.45
				c32.39-74.99,30.87-168.73-4.17-257.19c-33.23-83.9-92.07-151.44-157.39-180.67l0.2-0.46l-0.21,0.46
				C155.32,721.45,121.5,715.79,92.93,715.79z"/>
			<path class="st1" d="M-125.67,1195.8c-8.29,0-16.26-0.65-23.9-1.97c-28.79-4.96-59.2-20.76-85.64-44.49
				c-26.09-23.42-46.56-52.9-57.63-83c-21.74-59.09,0.97-108.59,22.93-156.46c21.87-47.68,42.53-92.71,16.79-142.72
				c-28.72-55.8-79.77-81.84-129.13-107.03c-54.69-27.91-106.36-54.27-126.87-117.85c-12.58-38.98-10.45-83,6.33-130.82
				c13.27-37.83,32.2-67.15,38.41-76.79c26.06-40.37,61.44-73.73,105.16-99.14c34.95-20.31,65.03-29.6,77.88-33.56l0.15,0.48
				l-0.15-0.48c98.18-30.31,225.61-13.15,340.87,45.91c57.44,29.43,109.8,68.54,151.43,113.1c45.31,48.5,77.77,102.49,96.5,160.45
				c13.66,42.28,19.92,87.03,18.62,133c-1.21,42.74-8.95,86.85-23.01,131.13c-25.6,80.63-71.65,160.74-133.16,231.67
				C119.46,1075.4,62.44,1123.11,5.01,1155.2C-42.94,1182-87.57,1195.8-125.67,1195.8z M-177.59,188.27
				c-36.63,0-71.58,4.82-103.45,14.66c-100.24,30.94-154.57,89.02-182.5,132.29c-47.87,74.17-63.72,147.6-44.63,206.76
				c20.38,63.18,71.86,89.45,126.37,117.26c49.5,25.26,100.7,51.38,129.56,107.47c25.96,50.44,5.21,95.69-16.77,143.6
				c-21.87,47.68-44.49,96.99-22.9,155.69c22.91,62.28,84.17,116.81,142.5,126.85c7.58,1.31,15.51,1.95,23.74,1.95
				c37.92,0,82.37-13.76,130.18-40.47c57.33-32.03,114.25-79.67,164.63-137.75c135.59-156.35,186.94-341.34,137.36-494.84
				C270.55,410.4,180.36,310.91,59.08,248.77C-18.52,209.01-101.65,188.27-177.59,188.27z"/>
		</g>
	</g>
	<g>
		<g>
			<defs>
				<rect id="SVGID_6_" x="-365.48" y="753.11" width="500" height="500"/>
			</defs>
			<clipPath id="SVGID_7_">
				<use xlink:href="#SVGID_6_"  style="overflow:visible;"/>
			</clipPath>
		</g>
	</g>
</g>
<g id="Objects">
	<g>
		<g>
			<g>
				<defs>
					<path id="SVGID_8_" d="M255.51,642.95h-443c-1.93,0-3.5-1.57-3.5-3.5v-293c0-1.93,1.57-3.5,3.5-3.5h443
						c1.93,0,3.5,1.57,3.5,3.5v293C259.01,641.38,257.44,642.95,255.51,642.95z"/>
				</defs>
				<clipPath id="SVGID_9_">
					<use xlink:href="#SVGID_8_"  style="overflow:visible;"/>
				</clipPath>
			</g>
		</g>
	</g>
	<g>
		<g>
			<path class="st2" d="M255.51,642.95h-443c-1.93,0-3.5-1.57-3.5-3.5v-293c0-1.93,1.57-3.5,3.5-3.5h443c1.93,0,3.5,1.57,3.5,3.5
				v293C259.01,641.38,257.44,642.95,255.51,642.95z"/>
			<g>
				<defs>
					<path id="SVGID_10_" d="M255.51,642.95h-443c-1.93,0-3.5-1.57-3.5-3.5v-293c0-1.93,1.57-3.5,3.5-3.5h443
						c1.93,0,3.5,1.57,3.5,3.5v293C259.01,641.38,257.44,642.95,255.51,642.95z"/>
				</defs>
				<clipPath id="SVGID_11_">
					<use xlink:href="#SVGID_10_"  style="overflow:visible;"/>
				</clipPath>
				<g class="st3">
					<path class="st4" d="M186.82,402.72c-10.24-4.58-49.72-22.25-96.33-8.97c-9.91,2.82-56.52,16.1-72.96,54.11
						c-21.75,50.3,32.56,90.18,18.92,144.77c-11.73,46.94-78.02,34.95-97.36,85.18c-10.1,26.22-6.28,61.12,10.09,81.35
						c51.07,63.14,277.81,49.47,336.92-87.39C329.12,572.16,269.35,439.65,186.82,402.72z"/>
				</g>
				<path class="st5" d="M99.54,734.58c-11.31,0-21.54-1.76-30.23-5.42c-24.87-10.45-46.46-40.93-50.23-70.9
					c-3.56-28.32,11.5-47.84,26.07-66.71c14.43-18.7,28.07-36.36,21.87-60.85c-6.94-27.39-26.71-44.02-45.83-60.1
					c-21.27-17.89-41.36-34.78-43.92-64.95c-2.39-28.2,12.13-59.1,40.9-87.01c16.78-16.28,46.75-36.41,94.22-39.83l0.04,0.5
					l-0.04-0.5c46.36-3.35,100.75,17.2,145.51,54.96c47.18,39.81,76.83,92.95,81.34,145.79c3.33,38.99-6.38,78-28.86,115.93
					c-19.49,32.9-47.93,63.49-82.25,88.46C183.62,716.33,135.93,734.58,99.54,734.58z M122.34,279.45c-3.34,0-6.63,0.12-9.89,0.35
					c-47.17,3.41-76.93,23.39-93.59,39.55c-28.55,27.7-42.97,58.32-40.6,86.21c2.53,29.76,22.46,46.52,43.57,64.27
					c19.24,16.18,39.14,32.92,46.16,60.62c6.32,24.97-7.46,42.81-22.04,61.71c-14.44,18.71-29.38,38.06-25.87,65.97
					c3.73,29.64,25.06,59.78,49.62,70.1c17.9,7.52,42.62,7.07,71.47-1.29c28.46-8.25,58.32-23.4,86.37-43.81
					c75.5-54.94,116.88-131.01,110.7-203.5c-4.48-52.58-34-105.47-80.99-145.11C215.83,299.59,166.15,279.45,122.34,279.45z"/>
			</g>
			<g>
				<ellipse class="st6" cx="124.48" cy="601.03" rx="25.76" ry="3.25"/>
			</g>
			<g>
				<g>
					<g>
						<g>
							<linearGradient id="SVGID_12_" gradientUnits="userSpaceOnUse" x1="140.532" y1="430.5316" x2="162.7584" y2="600.5638">
								<stop  offset="0" style="stop-color:#00FFFF"/>
								<stop  offset="0.3693" style="stop-color:#0071BC"/>
								<stop  offset="0.7613" style="stop-color:#9E005D"/>
								<stop  offset="1" style="stop-color:#ED1E79"/>
							</linearGradient>
							<path class="st7" d="M202.61,448.42l-62.24-23.11c-1.88-0.7-3.96,0.27-4.66,2.15L93.67,540.68c-0.7,1.88,0.26,3.96,2.14,4.66
								l62.24,23.11c1.88,0.7,3.96-0.26,4.66-2.14l42.03-113.22C205.43,451.22,204.48,449.12,202.61,448.42z"/>
						</g>
					</g>
				</g>
			</g>
			<linearGradient id="SVGID_13_" gradientUnits="userSpaceOnUse" x1="257.5279" y1="570.8918" x2="38.9693" y2="370.114">
				<stop  offset="0" style="stop-color:#00FFFF"/>
				<stop  offset="0.3693" style="stop-color:#B3D780"/>
				<stop  offset="0.7613" style="stop-color:#E9E61B"/>
				<stop  offset="1" style="stop-color:#FDB515"/>
			</linearGradient>
			<path class="st8" d="M133.67,415.79c-4.33,1.8-21,8.75-30.3,26.72c-1.98,3.82-11.28,21.79-4.43,37.67
				c9.07,21.01,36.74,15.91,49.43,35.68c10.92,17-11.7,33.73-1.96,53.98c5.08,10.58,16.79,19.4,27.63,20.22
				c33.82,2.54,94.55-70.32,69.85-127.46C225.92,421.01,168.52,401.26,133.67,415.79z"/>
			<path class="st9" d="M167.53,583.68c-0.97,0-1.9-0.02-2.79-0.07c-17.56-0.87-31.3-6.85-38.69-16.85
				c-7.92-10.72-6.2-22.1-4.37-34.15c1.63-10.74,3.31-21.84-2.27-32.73c-4.96-9.69-14.45-11.54-24.5-13.5
				c-10.27-2-20.89-4.07-27.94-14.47c-7.45-10.99-9.16-27.32-3.98-37.99c7.62-15.7,33.86-28.19,65.31-31.09
				c40.83-3.77,76.55,9.35,95.56,35.1c30.32,41.07,16.23,106.66-16.57,131.55l0,0l-0.3-0.4l0.3,0.4
				C192.11,580.98,177.71,583.68,167.53,583.68z M141.95,403.19c-4.44,0-8.97,0.21-13.56,0.63c-31.11,2.87-57.03,15.14-64.5,30.53
				c-5.04,10.38-3.36,26.28,3.91,36.99c6.83,10.06,17.24,12.09,27.31,14.05c10.29,2,20.02,3.9,25.2,14.02
				c5.72,11.18,4.01,22.44,2.36,33.34c-1.79,11.84-3.49,23.02,4.19,33.41c7.21,9.75,20.68,15.59,37.93,16.44
				c10.07,0.5,25.51-1.52,41.89-13.94l0.3,0.4l-0.3-0.4c32.45-24.62,46.38-89.51,16.37-130.16
				C206.38,415.95,176.67,403.19,141.95,403.19z"/>
			<path class="st10" d="M165.3,506.44c-1.57,0-3.16-0.04-4.76-0.13c-24.18-1.33-43.91-12.08-52.79-28.77
				c-14.16-26.61-0.26-63.71,21.06-75.41c10.79-5.92,20.13-5.76,26.06-4.58c10.18,2.02,17.68,6.7,21.13,13.18
				c3.69,6.94,1.7,13.43-0.41,20.31c-1.88,6.14-3.83,12.49-1.51,19.36c2.07,6.12,7.47,8.02,13.18,10.04
				c5.82,2.05,11.84,4.18,15.06,10.86c3.4,7.05,2.99,16.73-0.96,22.51C196.06,501.57,181.9,506.44,165.3,506.44z M148.15,397.39
				c-5.3,0-11.87,1.2-19.1,5.17l0,0c-21.12,11.59-34.89,48.36-20.86,74.74c8.79,16.53,28.37,27.18,52.38,28.5
				c18.46,1.02,34.68-3.92,40.39-12.29c3.85-5.64,4.25-15.1,0.92-22.01c-3.13-6.49-9.05-8.58-14.77-10.6
				c-5.83-2.06-11.35-4-13.49-10.35c-2.37-7.02-0.4-13.45,1.51-19.67c2.08-6.77,4.04-13.17,0.44-19.93
				c-3.38-6.34-10.76-10.93-20.79-12.92C152.89,397.66,150.66,397.39,148.15,397.39z M128.92,402.35L128.92,402.35L128.92,402.35z"
				/>
			<g>
				<g class="st11">
					<polygon class="st12" points="187.53,442.82 180.65,447.44 120.45,487.85 110.91,494.26 124.03,458.9 133.58,452.5 
						155.19,437.99 162.07,433.37 					"/>
				</g>
				<g class="st11">
					<polygon class="st12" points="201.24,447.91 194.35,452.53 113.38,506.88 113.38,506.89 103.84,513.29 108.46,500.84 
						108.46,500.83 118.01,494.43 118.01,494.42 185.38,449.2 192.27,444.58 					"/>
				</g>
			</g>
			<g>
				<g>
					
						<rect x="167.52" y="512.03" transform="matrix(0.9875 -0.1573 0.1573 0.9875 -80.4247 36.9575)" class="st13" width="51.48" height="29.06"/>
				</g>
				<g>
					<polygon class="st14" points="193.26,526.55 216.4,508.16 165.56,516.26 					"/>
				</g>
			</g>
			<g>
				<g>
					<path class="st15" d="M148.2,466.11c1.97-1.71,3.68-10.11-0.71-8c-4.39,2.11-1.05,8.06-1.05,8.06L148.2,466.11z"/>
				</g>
				<path class="st16" d="M149.39,484.34c3.98,1.05,6.83-0.88,7.76-1.81c0.94-0.93-1.54-2.29-2.35-3.45
					c-0.35-0.49-0.42-1.23-0.32-2.15c0.14-1.24,0.6-2.8,1.15-4.51l-7.96-2.46c0,0-0.24,4.13-0.44,5.66c-0.03,0.27-0.1,0.5-0.19,0.7
					c-0.42,0.92-1.44,1.2-3.15,2.26C141.82,479.87,145.41,483.29,149.39,484.34z"/>
				<path class="st17" d="M147.24,475.61c-0.01,0.1-0.03,0.2-0.05,0.28c0.8,0.96,1.76,1.72,2.6,1.83c1.31,0.16,3.01-0.29,4.78-1.47
					c0.2-1.11,0.6-2.42,1.06-3.84l-7.96-2.46C147.68,469.96,147.44,474.09,147.24,475.61z"/>
				<path class="st16" d="M158.52,467.54c-0.89,3.91-1.4,5.79-3.33,7.19c-1.93,1.4-3.81,1.95-5.23,1.77
					c-1.78-0.22-4.07-3.36-4.31-5.09c-0.26-1.79-0.35-6.34,0.76-10.6c0.56-2.16,3.61-4.48,6.4-4.13
					C155.61,457.03,160.7,458,158.52,467.54z"/>
				<path class="st16" d="M144.88,466.53c0.14,1.48,0.88,2.63,1.66,2.55c0.78-0.07,1.29-1.34,1.15-2.82
					c-0.14-1.48-0.88-2.63-1.66-2.55C145.25,463.79,144.74,465.05,144.88,466.53z"/>
				<g>
					<path class="st18" d="M150.64,481.9"/>
				</g>
				<linearGradient id="SVGID_14_" gradientUnits="userSpaceOnUse" x1="157.255" y1="524.8179" x2="138.9217" y2="469.6512">
					<stop  offset="0" style="stop-color:#3301A0"/>
					<stop  offset="1" style="stop-color:#6A01A0"/>
				</linearGradient>
				<path class="st19" d="M182.21,504.81l-18.36,4.79l-4.89-13.86c0,0-3.82,23.23-4.56,25.91c-0.72,2.6-1.4,2.77-2.55,2.57
					l-18.49-3.24c-1.27-0.22-1.93-1.74-1.29-4.11c0.52-1.93,4.55-17.64,5.27-24.86c0,0-2.33,5.55-5.91,11l-17.41-6.64l1.92-5.34
					l12.14,3.33c0,0,4.1-8.45,8.65-13.45c1.36-1.5,5.26-3.44,7.61-3.83c0.7-0.13,1.31-0.2,1.79-0.22c0.08,2.18,2.06,3.7,3.68,3.98
					c1.62,0.28,4.88-0.25,5.34-1.93c0.62,0.22,1.24,0.57,1.87,0.98c2.33,1.55,3.82,2.07,4.85,4.11c1.66,3.28,6.73,17.93,6.73,17.93
					l13.82-3.1L182.21,504.81z"/>
				<g>
					<g>
						<path class="st20" d="M140.89,593.73c0.36,0.82,2.25,2.81,4.96,4.23c2.71,1.42,8.39,2.66,5.01,3.47
							c-3.38,0.81-5.63,0.7-10.75-1c-2.15-0.62-1.94-0.72-4.25-0.63c-2.3,0.1-4,0.71-2.91-3.75
							C134.03,591.62,139.72,591.07,140.89,593.73z"/>
					</g>
					<g>
						<path class="st20" d="M101.27,575.06c-0.18,0.88-2.51,2.9-4.86,4.86c-2.35,1.96-5.09,2.99-3.23,3.99
							c3.22,1.74,4.81,0.22,9.45-2.52c1.97-1.06,1.87-0.66,4.02-1.51c1.47-0.58,2.71-1.35,2.05-4.28
							C107.69,571.13,101.85,572.21,101.27,575.06z"/>
					</g>
					<linearGradient id="SVGID_15_" gradientUnits="userSpaceOnUse" x1="126.0581" y1="598.1093" x2="128.558" y2="521.6114">
						<stop  offset="0" style="stop-color:#F7631E"/>
						<stop  offset="1" style="stop-color:#FEBC66"/>
					</linearGradient>
					<path class="st21" d="M154.24,523.25c0,0-2.57,17.87-4.31,28.59c-0.2,1.21-0.38,2.32-0.55,3.28c-0.24,1.4-0.44,2.49-0.59,3.15
						c-0.26,1.18-0.74,3.44-1.32,6.24c-0.21,1.02-0.43,2.1-0.67,3.24c-1.91,9.34-4.39,21.86-4.51,23.47
						c-0.12,1.59-0.07,2.95-0.02,3.66c0.02,0.24-0.23,0.4-0.45,0.3l-2.54-1.17c-0.08-0.04-0.16-0.04-0.24-0.02
						c-0.82,0.31-5.56,2.07-6.25,2.88c-0.76,0.89,0.3-2.2,0.56-5.52c0.2-2.47,3.17-17.36,5.08-26.71c0.24-1.18,0.46-2.27,0.66-3.24
						c0.39-1.9,0.68-3.33,0.82-4c0.2-0.97,0.35-3.06,0.46-5.62c0.05-1.08,0.09-2.24,0.13-3.44c0.19-6.28,0.22-13.57,0.23-14.96
						c0-0.14-0.1-0.26-0.24-0.3l-4.14-1.1c-0.07-0.02-0.14-0.02-0.21,0.02c-1.06,0.52-10.57,5.18-15.13,9.1
						c-1.12,0.95-1.94,1.86-2.26,2.66c-0.05,0.11-0.08,0.22-0.11,0.32c-0.91,3.67-1.79,6.64-2.55,8.78
						c-0.27,0.78-0.53,1.46-0.78,2.01c-0.12,0.27-0.27,0.62-0.43,1.03c-1.68,4.06-5.42,14.07-6.08,16.01
						c-0.42,1.21-0.02,2.07-0.02,2.96c0,1.44-2.32,2.09-3.53,1.51c-0.9-0.43-2.71-1.65-3.77-1.44c-0.24,0.05-0.45-0.13-0.4-0.37
						c0.68-2.83,3.18-13.14,5.44-21.77c0.29-1.09,0.57-2.16,0.85-3.18c1.16-4.29,2.18-7.78,2.76-9.06c0.3-0.66,0.99-1.62,1.96-2.77
						c5.48-6.48,19.15-18.61,19.15-18.61s0.49-1.49,1.31-1.37c1.79,0.27,1.93,0.58,11,2.39
						C153.34,522.16,154.52,521.17,154.24,523.25z"/>
				</g>
				<g>
					<path class="st15" d="M157.87,460.84c-5.41-0.63-9.21-1.45-11.04-3.94c-1.84-2.49-0.15-2.77,1.22-1.91c0,0,0.9-2.3,3-0.85
						c0,0,2.72-1.77,4.77,1.04c0,0,3.71-1.11,4.03,1.79C159.85,456.96,162.64,461.39,157.87,460.84z"/>
				</g>
				<g>
					<path class="st15" d="M160.36,459.65c1.48,2.15,1.07,10.7-2.67,7.58c-3.74-3.13,0.51-7.43,0.51-7.43L160.36,459.65z"/>
				</g>
				<path class="st16" d="M157.36,467.25c-0.73,1.3-0.77,2.66-0.09,3.04c0.68,0.38,1.82-0.36,2.55-1.66
					c0.73-1.3,0.77-2.66,0.09-3.04C159.24,465.21,158.09,465.96,157.36,467.25z"/>
				<g>
					<path class="st15" d="M154.15,523.09L131.49,519c-0.16-0.03-0.25-0.19-0.2-0.34l0.8-2.26c0.04-0.12,0.16-0.19,0.29-0.17
						l22.29,3.9c0.14,0.02,0.23,0.16,0.21,0.3l-0.43,2.45C154.42,523.02,154.29,523.12,154.15,523.09z"/>
				</g>
				<path class="st22" d="M157.01,479.92c-1.72,2.07-4.28,3.18-6.9,2.72c-2.84-0.5-4.99-2.7-5.78-5.54c0.7-0.13,1.31-0.2,1.79-0.22
					c0.08,2.18,2.06,3.7,3.68,3.98c1.62,0.28,4.88-0.25,5.34-1.93C155.76,479.16,156.39,479.51,157.01,479.92z"/>
				<g>
					<path class="st15" d="M161.7,459.64c0.3-0.59,0.06-1.31-0.53-1.6l-1.08,2.13C160.68,460.46,161.4,460.22,161.7,459.64z"/>
				</g>
				<g>
					<path class="st15" d="M148.87,459.83c1.98-0.64,3.07-2.76,2.43-4.74l-7.17,2.31C144.77,459.38,146.89,460.47,148.87,459.83z"/>
				</g>
				<g>
					<path class="st15" d="M151.9,460.6c1.04-0.92,1.13-2.51,0.21-3.54l-3.75,3.34C149.28,461.43,150.87,461.52,151.9,460.6z"/>
				</g>
				<g>
					<path class="st15" d="M161.48,461.15c0.65-0.13,1.07-0.75,0.94-1.4l-2.34,0.46C160.21,460.85,160.83,461.27,161.48,461.15z"/>
				</g>
			</g>
			<g>
				<g>
					<path class="st12" d="M202.61,448.42l-1.37-0.51l-8.97-3.33l-4.74-1.76l-25.46-9.45l-21.7-8.06c-1.87-0.69-3.96,0.27-4.66,2.15
						l-11.68,31.44l-13.12,35.36l-2.45,6.57v0.01l-4.62,12.45l-10.17,27.38c-0.12,0.34-0.19,0.69-0.21,1.03
						c-0.11,1.56,0.81,3.07,2.35,3.63l11.56,4.29l8.72,3.24l23,8.54l8.38,3.11l10.58,3.93c1.87,0.7,3.96-0.26,4.66-2.13
						l41.26-111.16l0.77-2.06C205.44,451.21,204.49,449.12,202.61,448.42z M196.69,455.48l-0.88,2.36l-35.54,95.75
						c-0.38,1.01-1.51,1.53-2.53,1.15l-7.81-2.9l-9.43-3.5l-19.49-7.24l-8.92-3.31l-7.11-2.64c-0.77-0.29-1.25-1-1.27-1.76
						c-0.02-0.25,0.02-0.51,0.11-0.76l9.56-25.74v-0.01l4.63-12.45v-0.01l2.44-6.57l13.13-35.35l6.67-17.97
						c0.37-1.01,1.5-1.53,2.52-1.15l12.42,4.61l25.46,9.45l4.73,1.76l8.97,3.33l1.18,0.44
						C196.55,453.34,197.07,454.47,196.69,455.48z"/>
				</g>
			</g>
			<g>
				<g>
					<path class="st6" d="M138.43,564.64l8.37,3.11c0.24-1.14,0.46-2.22,0.67-3.24l-8.38-3.11
						C138.89,562.37,138.67,563.46,138.43,564.64z"/>
				</g>
				<g>
					<path class="st6" d="M106.52,552.8l8.36,3.1c0.16-0.41,0.31-0.76,0.43-1.03c0.25-0.55,0.51-1.23,0.78-2.01l-8.72-3.24
						C107.09,550.64,106.81,551.71,106.52,552.8z"/>
				</g>
			</g>
			<g>
				<g>
					<path class="st23" d="M125.16,552.23L125.16,552.23c-1.76-0.66-2.66-2.62-2.01-4.38l0,0c0.66-1.76,2.62-2.66,4.38-2.01l0,0
						c1.76,0.66,2.66,2.62,2.01,4.38l0,0C128.89,551.98,126.93,552.88,125.16,552.23z"/>
				</g>
			</g>
			<path class="st16" d="M111.17,493.55c0.9,0.17,2.28-0.09,2.95-0.44c0.67-0.35,1.31-2.4,1.52-3.87c0.21-1.47-1.68-1.28-1.68-1.28
				s0.74-0.29,1.94-0.46c1.2-0.16,1.68-1.54-0.06-1.52c-1.74,0.02-3.44,0.85-5.05,4.16c0,0-1.66,3.07,0.01,4.4L111.17,493.55z"/>
			<path class="st16" d="M190.39,496.26c0.01-1.16-2.01-3.03-2.56-2.28c-0.55,0.75-2.08,3.44-1.82,4.76
				c0.26,1.32,0.93,2.31,0.93,2.31l-0.38,1.03C186.55,502.07,190.35,501.31,190.39,496.26z"/>
			<g>
				<path class="st24" d="M159.15,410.13l-75.66,6.25c-1.82,0.15-3.18,1.75-3.03,3.58l1.83,22.14c0.15,1.82,1.75,3.18,3.58,3.03
					l7.46-0.62l3.62-0.3c0.71,0.78,2.53,2.75,3.29,3.46c0.68,0.65,1.83,0.55,2.4-0.2c0.63-0.83,2.1-3.07,2.67-3.96l18.39-1.52
					l37.83-3.13c1.82-0.15,3.18-1.75,3.03-3.58l-1.83-22.14C162.57,411.33,160.97,409.97,159.15,410.13z"/>
				<path class="st24" d="M212.27,408.85L188.43,406c-1.02-0.12-1.95,0.61-2.07,1.63l-2.85,23.84c-0.12,1.02,0.61,1.95,1.63,2.07
					l23.84,2.85c1.02,0.12,1.95-0.61,2.07-1.63l2.85-23.84C214.02,409.9,213.29,408.97,212.27,408.85z"/>
				<path class="st24" d="M108.22,458.83c-0.72-2.28-3.15-3.54-5.43-2.82l-27.82,8.81c-2.28,0.72-3.54,3.15-2.82,5.43l5.74,18.11
					c0.72,2.28,3.15,3.54,5.43,2.82l2.72-0.86c0,0,5.07,3.52,6.84,4.57c1.28,0.75,3.01,0.21,3.62-1.15
					c0.85-1.88,2.96-7.68,2.96-7.68l11.68-3.7c2.28-0.72,3.54-3.15,2.82-5.43L108.22,458.83z"/>
				<path class="st24" d="M201.57,467.03c-0.27-1.15-1.8-1.4-2.42-0.39l-2.51,4.08l-1.41-5.92c-0.29-1.2-1.49-1.94-2.68-1.65
					l-16.28,3.88c-1.2,0.29-1.94,1.49-1.65,2.68l3.88,16.28c0.29,1.2,1.49,1.94,2.68,1.65l16.28-3.88c1.2-0.29,1.94-1.49,1.65-2.68
					l-1.41-5.92l4.08,2.51c1.01,0.62,2.26-0.29,1.99-1.44L201.57,467.03z"/>
				<path class="st24" d="M54.66,439.72c-0.85-1.78-3.42-1.64-4.08,0.22l-5.25,14.85c-0.66,1.86,1.26,3.58,3.03,2.73l10.05-4.8
					c1.1-0.53,1.57-1.84,1.04-2.95L54.66,439.72z"/>
				<path class="st24" d="M59.95,399.19c-3.41,1.08-5.3,4.72-4.22,8.13c1.08,3.41,4.72,5.3,8.13,4.22c3.41-1.08,5.3-4.72,4.22-8.13
					C67,399.99,63.36,398.11,59.95,399.19z"/>
				<path class="st24" d="M237.93,563.17c-1.92-1.44-4.64-1.05-6.08,0.87c-1.44,1.92-1.05,4.64,0.87,6.08
					c1.92,1.44,4.64,1.05,6.08-0.87C240.24,567.34,239.85,564.61,237.93,563.17z"/>
				
					<ellipse transform="matrix(0.6618 -0.7497 0.7497 0.6618 -256.6372 322.0964)" class="st24" cx="228.64" cy="445.47" rx="8.2" ry="8.2"/>
				<path class="st24" d="M95.4,504.91c-5.87,1.83-9.15,8.08-7.31,13.96c1.83,5.87,8.08,9.15,13.96,7.31
					c5.87-1.83,9.15-8.08,7.31-13.96C107.52,506.34,101.27,503.07,95.4,504.91z"/>
			</g>
			<g>
				<g>
					<linearGradient id="SVGID_16_" gradientUnits="userSpaceOnUse" x1="144.8254" y1="464.9955" x2="88.0755" y2="365.4956">
						<stop  offset="0" style="stop-color:#00FFFF"/>
						<stop  offset="0.3693" style="stop-color:#B3D780"/>
						<stop  offset="0.7613" style="stop-color:#E9E61B"/>
						<stop  offset="1" style="stop-color:#FDB515"/>
					</linearGradient>
					<path class="st25" d="M160.47,404.72l-81.17,6.71c-1.96,0.16-3.41,1.88-3.25,3.84l1.96,23.75c0.16,1.96,1.88,3.41,3.84,3.25
						l8-0.66l3.88-0.32c0.77,0.83,2.72,2.95,3.53,3.72c0.73,0.69,1.96,0.59,2.57-0.21c0.67-0.89,2.25-3.3,2.87-4.25l19.73-1.63
						l40.58-3.35c1.96-0.16,3.41-1.88,3.25-3.84l-1.96-23.75C164.14,406.02,162.42,404.56,160.47,404.72z"/>
					<g>
						<path class="st14" d="M95.82,426.32c0.74-0.78,1.16-1.86,1.06-3.02l-0.16-1.93c-0.18-2.14-1.98-3.88-4.13-3.76
							c-2.22,0.12-3.89,2.04-3.71,4.25l0.17,2.09c0.1,1.16,0.69,2.15,1.54,2.8c-2.56,1.1-4.43,3.43-4.9,6.2
							c-0.19,1.08,0.73,2.03,1.82,1.94l12.68-1.05c1.09-0.09,1.84-1.18,1.48-2.21C100.75,428.98,98.52,426.98,95.82,426.32z"/>
					</g>
					<g>
						<g>
							<path class="st14" d="M128.57,414.63l-16.18,1.34c-1.32,0.11-2.31,1.27-2.2,2.6l0.66,7.95c0.11,1.32,1.27,2.31,2.6,2.2
								l1.58-0.13c0,0,2.31,2.54,3.15,3.32c0.6,0.57,1.61,0.48,2.1-0.17c0.69-0.91,2.56-3.8,2.56-3.8l6.79-0.56
								c1.32-0.11,2.31-1.27,2.2-2.6l-0.66-7.95C131.05,415.5,129.89,414.52,128.57,414.63z"/>
						</g>
						<g>
							<path class="st13" d="M114.18,420.01c-0.51,0-0.95-0.39-1-0.92c-0.04-0.55,0.36-1.03,0.92-1.08l13.12-1.08
								c0.54-0.05,1.03,0.36,1.08,0.91c0.04,0.55-0.36,1.03-0.92,1.08l-13.12,1.08C114.24,420.01,114.21,420.01,114.18,420.01z"/>
						</g>
						<g>
							<path class="st13" d="M114.47,423.45c-0.51,0-0.95-0.4-1-0.92c-0.04-0.55,0.36-1.03,0.92-1.08l13.11-1.08
								c0.54-0.05,1.03,0.36,1.08,0.91c0.04,0.55-0.36,1.03-0.92,1.08l-13.11,1.08C114.52,423.45,114.5,423.45,114.47,423.45z"/>
						</g>
						<g>
							<path class="st13" d="M114.75,426.89c-0.51,0-0.95-0.4-1-0.92c-0.04-0.55,0.36-1.03,0.92-1.08l5.91-0.49
								c0.54-0.05,1.03,0.36,1.08,0.91c0.04,0.55-0.36,1.03-0.92,1.08l-5.91,0.49C114.81,426.89,114.78,426.89,114.75,426.89z"/>
						</g>
					</g>
					<g>
						<path class="st14" d="M158.91,425.68c-0.13-1.62-0.79-3.08-1.79-4.22l-0.14-1.71c-0.24-2.89-2.52-5.11-5.31-5.37l-0.04-0.5
							c-0.05-0.57-0.54-0.99-1.11-0.94c-0.57,0.05-0.99,0.54-0.94,1.11l0.04,0.5c-2.71,0.71-4.6,3.28-4.36,6.16l0.14,1.71
							c0,0,0,0,0,0c-0.79,1.29-1.2,2.83-1.07,4.45l0.06,0.74c0.03,0.38,0.36,0.66,0.74,0.63l2.9-0.24
							c-0.02,0.21,0.05,0.44,0.27,0.58c1.03,0.64,2.27,0.96,3.57,0.86c1.3-0.11,2.47-0.63,3.38-1.43c0.19-0.17,0.23-0.41,0.17-0.61
							l2.9-0.24c0.38-0.03,0.66-0.36,0.63-0.74L158.91,425.68z"/>
					</g>
				</g>
				<g>
					<path class="st26" d="M146.47,427.3c0.14,1.71-1.13,3.2-2.83,3.34c-1.71,0.14-3.2-1.13-3.34-2.83
						c-0.14-1.71,1.13-3.2,2.83-3.34C144.83,424.33,146.33,425.6,146.47,427.3z"/>
				</g>
			</g>
			<g>
				<g>
					<path class="st27" d="M213.92,432.9l-25.58-3.06c-1.1-0.13-1.88-1.13-1.75-2.22l3.06-25.58c0.13-1.1,1.13-1.88,2.22-1.75
						l25.58,3.06c1.1,0.13,1.88,1.13,1.75,2.22l-3.06,25.58C216.01,432.25,215.01,433.03,213.92,432.9z"/>
				</g>
				<g>
					<path class="st14" d="M189.57,425.99l2.59-21.66c0.08-0.66,0.68-1.14,1.34-1.06l21.66,2.59c0.66,0.08,1.14,0.68,1.06,1.34
						l-2.59,21.66c-0.08,0.66-0.68,1.14-1.34,1.06l-21.66-2.59C189.96,427.25,189.49,426.65,189.57,425.99z"/>
				</g>
				<g>
					<path class="st13" d="M203.46,418.57l-2.66,2.09c-0.49,0.38-1.2,0.3-1.58-0.19l0,0c-0.38-0.49-1.09-0.57-1.58-0.19l-3.94,3.1
						c-0.79,0.62-0.43,1.89,0.56,2.01l0.46,0.06l9.28,1.11l5.22,0.62c1,0.12,1.64-1.03,1.02-1.82l-5.19-6.6
						C204.66,418.27,203.95,418.18,203.46,418.57z"/>
				</g>
				<path class="st13" d="M198.68,414.09c-0.13,1.09-1.12,1.87-2.21,1.74c-1.09-0.13-1.87-1.12-1.74-2.21
					c0.13-1.09,1.12-1.87,2.21-1.74C198.04,412.02,198.82,413,198.68,414.09z"/>
			</g>
			<g>
				<g>
					<path class="st14" d="M98.02,451.88l-29.84,9.45c-2.44,0.77-3.8,3.38-3.02,5.82l6.15,19.43c0.77,2.44,3.38,3.8,5.82,3.02
						l2.92-0.92c0,0,5.44,3.78,7.34,4.9c1.37,0.81,3.23,0.22,3.88-1.23c0.91-2.01,3.18-8.23,3.18-8.23l12.53-3.97
						c2.44-0.77,3.8-3.38,3.02-5.82l-6.15-19.43C103.07,452.46,100.46,451.1,98.02,451.88z"/>
				</g>
				<g>
					<path class="st13" d="M98.11,461.96l-24.19,7.66c-0.79,0.25-1.63-0.19-1.88-0.98c-0.25-0.79,0.19-1.63,0.98-1.88l24.19-7.66
						c0.79-0.25,1.63,0.19,1.88,0.98C99.33,460.86,98.89,461.71,98.11,461.96z"/>
				</g>
				<g>
					<path class="st13" d="M100.27,468.78l-24.19,7.66c-0.79,0.25-1.63-0.19-1.88-0.98c-0.25-0.79,0.19-1.63,0.98-1.88l24.19-7.66
						c0.79-0.25,1.63,0.19,1.88,0.98C101.49,467.69,101.06,468.53,100.27,468.78z"/>
				</g>
				<g>
					<path class="st13" d="M89.14,479.82l-10.91,3.45c-0.79,0.25-1.63-0.19-1.88-0.98c-0.25-0.79,0.19-1.63,0.98-1.88l10.91-3.45
						c0.79-0.25,1.63,0.19,1.88,0.98C90.37,478.72,89.93,479.57,89.14,479.82z"/>
				</g>
			</g>
			<g>
				<g>
					<path class="st28" d="M201.09,462.23l-2.7,4.38l-1.51-6.35c-0.31-1.28-1.59-2.08-2.88-1.77l-17.47,4.16
						c-1.28,0.31-2.08,1.59-1.77,2.88l4.16,17.47c0.31,1.28,1.59,2.08,2.88,1.77l17.47-4.16c1.28-0.31,2.08-1.59,1.77-2.88
						l-1.51-6.35l4.38,2.7c1.08,0.67,2.43-0.31,2.13-1.54l-2.36-9.89C203.39,461.41,201.75,461.15,201.09,462.23z"/>
				</g>
				<polyline class="st2" points="184.79,466.93 191.17,470.85 187.24,477.24 				"/>
			</g>
			<g>
				<g>
					<path class="st29" d="M53.53,447.26l-5.15-10.79c-0.91-1.91-3.67-1.76-4.37,0.23l-5.64,15.94c-0.7,1.99,1.35,3.84,3.26,2.93
						l10.79-5.15C53.59,449.85,54.09,448.44,53.53,447.26z"/>
				</g>
				<path class="st2" d="M50.21,445.49l-1.25-1.97l0.08-0.22c0.1-0.27-0.05-0.57-0.32-0.66c-0.27-0.1-0.57,0.05-0.66,0.32
					l-1.75,4.94c-0.33-0.33-0.78-0.62-1.32-0.81c-1.33-0.47-2.66-0.15-2.96,0.71c-0.31,0.86,0.52,1.95,1.85,2.42
					c1.31,0.46,2.62,0.16,2.95-0.68c0-0.01,0.01-0.02,0.01-0.02l1.22-3.45l0.73,1.15c0.27,0.43,0.93,0.36,1.1-0.12l0.37-1.06
					C50.34,445.85,50.31,445.65,50.21,445.49z"/>
			</g>
			<g>
				<g>
					<path class="st26" d="M64.61,399.26c1.16,3.66-0.87,7.56-4.53,8.72c-3.66,1.16-7.56-0.87-8.72-4.53
						c-1.16-3.66,0.87-7.56,4.53-8.72C59.55,393.57,63.45,395.6,64.61,399.26z"/>
				</g>
				<path class="st2" d="M60.69,398.01c-1.23-0.71-2.8-0.25-3.45,1c-1.25-0.65-2.8-0.13-3.39,1.17c-0.56,1.21-0.01,2.65,1.17,3.27
					l3.48,1.8c0.48,0.25,1.06,0.06,1.31-0.41l1.8-3.48C62.23,400.18,61.85,398.68,60.69,398.01z"/>
			</g>
			<g>
				<g>
					<path class="st26" d="M242.89,572.41c-1.55,2.06-4.47,2.47-6.53,0.93c-2.06-1.55-2.47-4.47-0.93-6.53
						c1.55-2.06,4.47-2.47,6.53-0.93C244.02,567.43,244.43,570.35,242.89,572.41z"/>
				</g>
				<path class="st2" d="M242.04,569.79c-0.09-0.95-0.95-1.62-1.89-1.49c-0.13-0.94-1.02-1.58-1.96-1.4
					c-0.88,0.17-1.45,1.03-1.33,1.91l0.37,2.6c0.05,0.36,0.38,0.6,0.74,0.55l2.6-0.37C241.46,571.47,242.12,570.68,242.04,569.79z"
					/>
			</g>
			<g>
				<linearGradient id="SVGID_17_" gradientUnits="userSpaceOnUse" x1="224.8136" y1="455.8304" x2="277.3137" y2="371.8303">
					<stop  offset="0" style="stop-color:#00FFFF"/>
					<stop  offset="0.6927" style="stop-color:#9E005D"/>
					<stop  offset="1" style="stop-color:#ED1E79"/>
				</linearGradient>
				<circle class="st30" cx="234.5" cy="440.33" r="8.8"/>
				<g>
					<path class="st2" d="M237.7,435.78c-0.35-0.4-0.94-0.46-1.36-0.11c-0.02,0.02-1.06,1.11-2.62,2.11l-0.83-0.34
						c-0.07-0.03-0.15,0.01-0.18,0.07l-1.79,4.4c-0.03,0.07,0.01,0.15,0.07,0.18l0.62,0.25c0.1,0.86,0.66,1.6,1.47,1.93l0.37,0.15
						l2.41,0.98l0.54,0.22c0.49,0.2,1.05-0.04,1.25-0.53c0.1-0.25,0.09-0.52-0.01-0.75l0.39,0.16c0.49,0.2,1.05-0.04,1.25-0.53
						c0.11-0.28,0.08-0.58-0.05-0.83c0.39,0.02,0.77-0.21,0.93-0.59c0.2-0.49-0.04-1.05-0.53-1.25l-0.01,0
						c0.23-0.09,0.43-0.27,0.53-0.53c0.2-0.49-0.04-1.05-0.53-1.25l-3.39-1.38C237.07,437.45,238.31,436.47,237.7,435.78z"/>
					<path class="st2" d="M228.86,441.5l1.13,0.46c0.18,0.07,0.38-0.01,0.45-0.19l1.83-4.5c0.07-0.18-0.01-0.38-0.19-0.45
						l-1.13-0.46c-0.18-0.07-0.38,0.01-0.45,0.19l-1.83,4.5C228.59,441.22,228.68,441.42,228.86,441.5z"/>
				</g>
			</g>
			<g>
				<linearGradient id="SVGID_18_" gradientUnits="userSpaceOnUse" x1="62.2267" y1="550.174" x2="158.2267" y2="451.5075">
					<stop  offset="0" style="stop-color:#00FFFF"/>
					<stop  offset="0.6927" style="stop-color:#9E005D"/>
					<stop  offset="1" style="stop-color:#ED1E79"/>
				</linearGradient>
				<circle class="st31" cx="93.72" cy="517.81" r="11.95"/>
				<g>
					<path class="st2" d="M93.14,510.27c-0.71-0.11-1.38,0.33-1.52,1.06c0,0.03-0.15,2.08-0.93,4.47l-1.17,0.36
						c-0.1,0.03-0.15,0.13-0.12,0.23l1.92,6.15c0.03,0.1,0.13,0.15,0.23,0.12l0.87-0.27c0.86,0.82,2.07,1.11,3.2,0.76l0.51-0.16
						l3.38-1.05l0.76-0.24c0.69-0.21,1.07-0.95,0.86-1.64c-0.11-0.35-0.35-0.62-0.66-0.77l0.54-0.17c0.69-0.21,1.07-0.95,0.86-1.64
						c-0.12-0.39-0.42-0.68-0.77-0.82c0.43-0.32,0.63-0.89,0.46-1.43c-0.21-0.69-0.95-1.07-1.64-0.86l-0.01,0
						c0.16-0.3,0.21-0.66,0.11-1.01c-0.22-0.69-0.95-1.07-1.64-0.86L93.64,514C93.92,512.56,94.37,510.47,93.14,510.27z"/>
					<path class="st2" d="M88.81,523.9l1.58-0.49c0.25-0.08,0.39-0.34,0.31-0.59l-1.97-6.29c-0.08-0.25-0.34-0.39-0.59-0.31
						l-1.58,0.49c-0.25,0.08-0.39,0.34-0.31,0.59l1.97,6.29C88.29,523.84,88.56,523.98,88.81,523.9z"/>
				</g>
			</g>
		</g>
		<g>
			<path class="st4" d="M-336.27-548.07c-10.24-4.58-49.72-22.25-96.33-8.97c-9.91,2.82-56.52,16.1-72.96,54.11
				c-21.75,50.3,32.56,90.18,18.92,144.77c-11.73,46.94-78.02,34.95-97.36,85.18c-10.1,26.22-6.28,61.12,10.09,81.35
				c51.07,63.14,277.81,49.47,336.92-87.39C-193.96-378.64-253.73-511.14-336.27-548.07z"/>
		</g>
		<path class="st32" d="M-423.55-216.21c-11.31,0-21.54-1.76-30.23-5.42c-24.87-10.45-46.46-40.93-50.23-70.9
			c-3.56-28.32,11.5-47.84,26.07-66.71c14.43-18.7,28.07-36.36,21.87-60.85c-6.94-27.39-26.71-44.02-45.83-60.1
			c-21.27-17.89-41.36-34.78-43.92-64.95c-2.39-28.2,12.13-59.1,40.9-87.01c16.78-16.28,46.75-36.41,94.22-39.83l0.04,0.5l-0.04-0.5
			c46.36-3.35,100.75,17.2,145.51,54.96c47.18,39.81,76.83,92.95,81.34,145.79c3.33,38.99-6.38,78-28.86,115.93
			c-19.49,32.9-47.93,63.49-82.25,88.46C-339.46-234.46-387.16-216.21-423.55-216.21z M-400.74-671.34c-3.34,0-6.63,0.12-9.89,0.35
			c-47.17,3.41-76.93,23.39-93.59,39.55c-28.55,27.7-42.97,58.32-40.6,86.21c2.53,29.76,22.46,46.52,43.57,64.27
			c19.24,16.18,39.14,32.92,46.16,60.62c6.32,24.97-7.46,42.81-22.04,61.71c-14.44,18.71-29.38,38.06-25.87,65.97
			c3.73,29.64,25.06,59.78,49.62,70.1c17.9,7.52,42.62,7.07,71.47-1.29c28.46-8.25,58.32-23.4,86.37-43.81
			c75.5-54.94,116.88-131.01,110.7-203.5c-4.48-52.58-34-105.47-80.99-145.11C-307.25-651.2-356.93-671.34-400.74-671.34z"/>
		<g>
			<g>
				<ellipse class="st6" cx="92.43" cy="216.33" rx="25.76" ry="3.25"/>
			</g>
			<g>
				<g>
					<g>
						<g>
							<linearGradient id="SVGID_19_" gradientUnits="userSpaceOnUse" x1="108.4841" y1="45.8283" x2="130.7105" y2="215.8604">
								<stop  offset="0" style="stop-color:#00FFFF"/>
								<stop  offset="0.3693" style="stop-color:#0071BC"/>
								<stop  offset="0.7613" style="stop-color:#9E005D"/>
								<stop  offset="1" style="stop-color:#ED1E79"/>
							</linearGradient>
							<path class="st33" d="M170.56,63.72l-62.24-23.11c-1.88-0.7-3.96,0.27-4.66,2.15L61.62,155.97c-0.7,1.88,0.26,3.96,2.14,4.66
								L126,183.74c1.88,0.7,3.96-0.26,4.66-2.14l42.04-113.22C173.39,66.51,172.43,64.42,170.56,63.72z"/>
						</g>
					</g>
				</g>
			</g>
			<linearGradient id="SVGID_20_" gradientUnits="userSpaceOnUse" x1="225.48" y1="186.1885" x2="6.9214" y2="-14.5894">
				<stop  offset="0" style="stop-color:#00FFFF"/>
				<stop  offset="0.3693" style="stop-color:#B3D780"/>
				<stop  offset="0.7613" style="stop-color:#E9E61B"/>
				<stop  offset="1" style="stop-color:#FDB515"/>
			</linearGradient>
			<path class="st34" d="M101.62,31.08c-4.33,1.8-21,8.75-30.3,26.72c-1.98,3.82-11.28,21.79-4.43,37.67
				c9.07,21.01,36.74,15.91,49.43,35.68c10.92,17-11.7,33.73-1.96,53.98c5.08,10.58,16.79,19.4,27.63,20.22
				c33.82,2.54,94.55-70.32,69.85-127.46C193.87,36.3,136.47,16.56,101.62,31.08z"/>
			<path class="st9" d="M135.48,198.98c-0.97,0-1.9-0.02-2.79-0.07c-17.56-0.87-31.3-6.85-38.69-16.85
				c-7.92-10.72-6.2-22.1-4.37-34.15c1.63-10.74,3.31-21.84-2.27-32.73c-4.96-9.69-14.45-11.54-24.5-13.5
				c-10.27-2-20.89-4.07-27.94-14.47c-7.45-10.99-9.16-27.32-3.98-37.99c7.62-15.7,33.86-28.19,65.31-31.09
				c40.83-3.77,76.55,9.35,95.56,35.1c30.32,41.07,16.23,106.66-16.57,131.55l0,0l-0.3-0.4l0.3,0.4
				C160.06,196.28,145.66,198.98,135.48,198.98z M109.9,18.49c-4.44,0-8.97,0.21-13.56,0.63c-31.11,2.87-57.03,15.14-64.5,30.53
				c-5.04,10.38-3.36,26.28,3.91,36.99c6.83,10.06,17.24,12.09,27.31,14.05c10.29,2,20.02,3.9,25.2,14.02
				c5.72,11.18,4.01,22.44,2.36,33.34c-1.79,11.84-3.49,23.02,4.19,33.41c7.21,9.75,20.68,15.59,37.93,16.44
				c10.07,0.5,25.51-1.52,41.89-13.94l0.3,0.4l-0.3-0.4C207.08,159.35,221,94.46,191,53.81C174.33,31.24,144.63,18.49,109.9,18.49z"
				/>
			<path class="st10" d="M133.25,121.73c-1.57,0-3.16-0.04-4.76-0.13c-24.18-1.33-43.91-12.08-52.79-28.77
				c-14.16-26.61-0.26-63.71,21.06-75.41c10.79-5.92,20.13-5.76,26.06-4.58c10.18,2.02,17.68,6.7,21.13,13.18
				c3.69,6.94,1.7,13.43-0.41,20.31c-1.88,6.14-3.83,12.49-1.51,19.36c2.07,6.12,7.47,8.02,13.18,10.04
				c5.82,2.05,11.84,4.18,15.06,10.86c3.4,7.05,2.99,16.73-0.96,22.51C164.02,116.87,149.86,121.73,133.25,121.73z M116.1,12.69
				c-5.3,0-11.87,1.2-19.1,5.17l0,0C75.87,29.46,62.1,66.22,76.14,92.6c8.79,16.53,28.37,27.18,52.38,28.5
				c18.46,1.02,34.68-3.92,40.39-12.29c3.85-5.64,4.25-15.1,0.92-22.01c-3.13-6.49-9.05-8.58-14.77-10.6
				c-5.83-2.06-11.35-4-13.49-10.35c-2.37-7.02-0.4-13.45,1.51-19.67c2.08-6.77,4.04-13.17,0.44-19.93
				c-3.38-6.34-10.76-10.93-20.79-12.92C120.84,12.96,118.61,12.69,116.1,12.69z M96.88,17.64L96.88,17.64L96.88,17.64z"/>
			<g>
				<g class="st11">
					<polygon class="st12" points="155.48,58.12 148.6,62.74 88.4,103.15 78.86,109.56 91.98,74.2 101.53,67.8 123.14,53.29 
						130.02,48.67 					"/>
				</g>
				<g class="st11">
					<polygon class="st12" points="169.19,63.21 162.3,67.83 81.33,122.18 81.33,122.19 71.79,128.59 76.41,116.14 76.41,116.13 
						85.96,109.73 85.96,109.72 153.33,64.5 160.22,59.88 					"/>
				</g>
			</g>
			<g>
				<g>
					
						<rect x="135.48" y="127.32" transform="matrix(0.9875 -0.1573 0.1573 0.9875 -20.307 27.1264)" class="st13" width="51.48" height="29.06"/>
				</g>
				<g>
					<polygon class="st14" points="161.22,141.85 184.35,123.45 133.51,131.55 					"/>
				</g>
			</g>
			<g>
				<g>
					<path class="st15" d="M116.15,81.41c1.97-1.71,3.68-10.11-0.71-8c-4.39,2.11-1.05,8.06-1.05,8.06L116.15,81.41z"/>
				</g>
				<path class="st16" d="M117.34,99.63c3.98,1.05,6.83-0.88,7.76-1.81c0.94-0.93-1.54-2.29-2.35-3.45
					c-0.35-0.49-0.42-1.23-0.32-2.14c0.14-1.24,0.6-2.8,1.15-4.51l-7.96-2.46c0,0-0.24,4.13-0.44,5.66c-0.03,0.27-0.1,0.5-0.19,0.7
					c-0.42,0.92-1.44,1.2-3.15,2.26C109.77,95.16,113.36,98.58,117.34,99.63z"/>
				<path class="st17" d="M115.2,90.91c-0.01,0.1-0.03,0.2-0.05,0.28c0.8,0.96,1.76,1.72,2.6,1.83c1.31,0.16,3.01-0.29,4.78-1.47
					c0.2-1.11,0.6-2.42,1.06-3.84l-7.96-2.46C115.63,85.26,115.39,89.38,115.2,90.91z"/>
				<path class="st16" d="M126.47,82.83c-0.89,3.91-1.4,5.79-3.33,7.19c-1.93,1.4-3.81,1.95-5.23,1.77
					c-1.78-0.22-4.07-3.36-4.31-5.09c-0.26-1.79-0.35-6.34,0.76-10.6c0.56-2.16,3.61-4.48,6.4-4.13
					C123.56,72.32,128.65,73.29,126.47,82.83z"/>
				<path class="st16" d="M112.83,81.83c0.14,1.48,0.88,2.63,1.66,2.55c0.78-0.07,1.29-1.33,1.15-2.82
					c-0.14-1.48-0.88-2.63-1.66-2.55C113.2,79.09,112.69,80.35,112.83,81.83z"/>
				<g>
					<path class="st18" d="M118.59,97.2"/>
				</g>
				<linearGradient id="SVGID_21_" gradientUnits="userSpaceOnUse" x1="125.2071" y1="140.1145" x2="106.8738" y2="84.9479">
					<stop  offset="0" style="stop-color:#3301A0"/>
					<stop  offset="1" style="stop-color:#6A01A0"/>
				</linearGradient>
				<path class="st35" d="M150.17,120.11l-18.36,4.79l-4.89-13.86c0,0-3.82,23.23-4.56,25.91c-0.72,2.6-1.4,2.77-2.55,2.57
					l-18.49-3.24c-1.27-0.22-1.93-1.74-1.29-4.11c0.52-1.93,4.55-17.64,5.27-24.86c0,0-2.33,5.55-5.91,11l-17.41-6.64l1.92-5.34
					l12.14,3.33c0,0,4.1-8.45,8.65-13.45c1.36-1.5,5.26-3.44,7.61-3.83c0.7-0.13,1.31-0.2,1.79-0.22c0.08,2.18,2.06,3.7,3.68,3.98
					c1.62,0.28,4.88-0.25,5.34-1.93c0.62,0.22,1.24,0.57,1.87,0.98c2.33,1.55,3.82,2.07,4.85,4.11c1.66,3.28,6.73,17.93,6.73,17.93
					l13.82-3.1L150.17,120.11z"/>
				<g>
					<g>
						<path class="st20" d="M108.84,209.03c0.36,0.82,2.25,2.81,4.96,4.23c2.71,1.42,8.39,2.66,5.01,3.47
							c-3.38,0.81-5.63,0.7-10.75-1c-2.15-0.62-1.94-0.72-4.25-0.63c-2.3,0.1-4,0.71-2.91-3.75
							C101.99,206.91,107.67,206.37,108.84,209.03z"/>
					</g>
					<g>
						<path class="st20" d="M69.22,190.36c-0.18,0.88-2.51,2.9-4.86,4.86s-5.09,2.99-3.23,3.99c3.22,1.74,4.81,0.22,9.45-2.52
							c1.97-1.06,1.87-0.66,4.02-1.51c1.47-0.58,2.71-1.35,2.05-4.28C75.65,186.43,69.8,187.5,69.22,190.36z"/>
					</g>
					<linearGradient id="SVGID_22_" gradientUnits="userSpaceOnUse" x1="94.0102" y1="213.4059" x2="96.5101" y2="136.9081">
						<stop  offset="0" style="stop-color:#F7631E"/>
						<stop  offset="1" style="stop-color:#FEBC66"/>
					</linearGradient>
					<path class="st36" d="M122.19,138.55c0,0-2.57,17.87-4.31,28.59c-0.2,1.21-0.38,2.32-0.55,3.28c-0.24,1.4-0.44,2.49-0.59,3.15
						c-0.26,1.18-0.74,3.44-1.32,6.24c-0.21,1.02-0.43,2.1-0.67,3.24c-1.91,9.34-4.39,21.86-4.51,23.47
						c-0.12,1.59-0.07,2.95-0.02,3.66c0.02,0.24-0.23,0.4-0.45,0.3l-2.54-1.17c-0.08-0.04-0.16-0.04-0.24-0.02
						c-0.82,0.31-5.56,2.07-6.25,2.88c-0.76,0.89,0.3-2.2,0.56-5.52c0.2-2.47,3.17-17.36,5.08-26.71c0.24-1.18,0.46-2.27,0.66-3.24
						c0.39-1.9,0.68-3.33,0.82-4c0.2-0.97,0.35-3.06,0.46-5.62c0.05-1.08,0.09-2.24,0.13-3.44c0.19-6.28,0.22-13.57,0.23-14.96
						c0-0.14-0.1-0.26-0.24-0.3l-4.14-1.1c-0.07-0.02-0.14-0.02-0.21,0.02c-1.06,0.52-10.57,5.18-15.13,9.1
						c-1.12,0.95-1.94,1.86-2.26,2.66c-0.05,0.11-0.08,0.22-0.11,0.32c-0.91,3.67-1.79,6.64-2.55,8.78
						c-0.27,0.78-0.53,1.46-0.78,2.01c-0.12,0.27-0.27,0.62-0.43,1.03c-1.68,4.06-5.42,14.07-6.08,16.01
						c-0.42,1.21-0.02,2.07-0.02,2.96c0,1.44-2.32,2.09-3.53,1.51c-0.9-0.43-2.71-1.65-3.77-1.44c-0.24,0.05-0.45-0.13-0.4-0.37
						c0.68-2.83,3.18-13.14,5.44-21.77c0.29-1.09,0.57-2.16,0.85-3.18c1.16-4.29,2.18-7.78,2.76-9.06c0.3-0.66,0.99-1.62,1.96-2.77
						c5.48-6.48,19.15-18.61,19.15-18.61s0.49-1.49,1.31-1.37c1.79,0.27,1.93,0.58,11,2.39
						C121.29,137.46,122.47,136.46,122.19,138.55z"/>
				</g>
				<g>
					<path class="st15" d="M125.82,76.13c-5.41-0.63-9.21-1.45-11.04-3.94c-1.84-2.49-0.15-2.77,1.22-1.91c0,0,0.9-2.3,3-0.85
						c0,0,2.72-1.77,4.77,1.04c0,0,3.71-1.11,4.03,1.79C127.8,72.25,130.59,76.69,125.82,76.13z"/>
				</g>
				<g>
					<path class="st15" d="M128.31,74.94c1.48,2.15,1.07,10.7-2.67,7.58c-3.74-3.13,0.51-7.43,0.51-7.43L128.31,74.94z"/>
				</g>
				<path class="st16" d="M125.31,82.55c-0.73,1.3-0.77,2.66-0.09,3.04c0.68,0.38,1.82-0.36,2.55-1.66c0.73-1.3,0.77-2.66,0.09-3.04
					C127.19,80.51,126.04,81.25,125.31,82.55z"/>
				<g>
					<path class="st15" d="M122.1,138.39l-22.65-4.09c-0.16-0.03-0.25-0.19-0.2-0.34l0.8-2.26c0.04-0.12,0.16-0.19,0.29-0.17
						l22.29,3.9c0.14,0.02,0.23,0.16,0.21,0.3l-0.43,2.45C122.37,138.32,122.24,138.41,122.1,138.39z"/>
				</g>
				<path class="st22" d="M124.97,95.22c-1.72,2.07-4.28,3.18-6.9,2.72c-2.84-0.5-4.99-2.7-5.78-5.54c0.7-0.13,1.31-0.2,1.79-0.22
					c0.08,2.18,2.06,3.7,3.68,3.98c1.62,0.28,4.88-0.25,5.34-1.93C123.71,94.46,124.34,94.8,124.97,95.22z"/>
				<g>
					<path class="st15" d="M129.65,74.93c0.3-0.59,0.06-1.31-0.53-1.6l-1.08,2.13C128.64,75.76,129.35,75.52,129.65,74.93z"/>
				</g>
				<g>
					<path class="st15" d="M116.82,75.13c1.98-0.64,3.07-2.76,2.43-4.74l-7.17,2.31C112.72,74.68,114.84,75.77,116.82,75.13z"/>
				</g>
				<g>
					<path class="st15" d="M119.86,75.89c1.04-0.92,1.13-2.51,0.21-3.54l-3.75,3.34C117.23,76.72,118.82,76.82,119.86,75.89z"/>
				</g>
				<g>
					<path class="st15" d="M129.43,76.44c0.65-0.13,1.07-0.75,0.94-1.4l-2.34,0.46C128.16,76.15,128.79,76.57,129.43,76.44z"/>
				</g>
			</g>
			<g>
				<g>
					<path class="st12" d="M170.56,63.72l-1.37-0.51l-8.97-3.33l-4.74-1.76l-25.46-9.45l-21.7-8.06c-1.87-0.69-3.96,0.27-4.66,2.15
						L91.98,74.2l-13.12,35.36l-2.45,6.57v0.01l-4.62,12.45l-10.17,27.38c-0.12,0.34-0.19,0.69-0.21,1.03
						c-0.11,1.56,0.81,3.07,2.35,3.63l11.56,4.29l8.72,3.24l23,8.54l8.38,3.11l10.58,3.93c1.87,0.7,3.96-0.26,4.66-2.13
						l41.26-111.16l0.77-2.06C173.39,66.51,172.44,64.42,170.56,63.72z M164.64,70.78l-0.88,2.36l-35.54,95.75
						c-0.38,1.01-1.51,1.53-2.53,1.15l-7.81-2.9l-9.43-3.5l-19.49-7.24l-8.92-3.31l-7.11-2.64c-0.77-0.29-1.25-1-1.27-1.76
						c-0.02-0.25,0.02-0.51,0.11-0.76l9.56-25.74v-0.01l4.63-12.45v-0.01l2.44-6.57l13.13-35.35l6.67-17.97
						c0.37-1.01,1.5-1.53,2.52-1.15l12.42,4.61l25.46,9.45l4.73,1.76l8.97,3.33l1.18,0.44C164.5,68.64,165.02,69.77,164.64,70.78z"
						/>
				</g>
			</g>
			<g>
				<g>
					<path class="st6" d="M106.38,179.94l8.37,3.11c0.24-1.14,0.46-2.22,0.67-3.24l-8.38-3.11
						C106.84,177.67,106.62,178.76,106.38,179.94z"/>
				</g>
				<g>
					<path class="st6" d="M74.47,168.1l8.36,3.1c0.16-0.41,0.31-0.76,0.43-1.03c0.25-0.55,0.51-1.23,0.78-2.01l-8.72-3.24
						C75.04,165.94,74.76,167.01,74.47,168.1z"/>
				</g>
			</g>
			<g>
				<g>
					<path class="st23" d="M93.12,167.53L93.12,167.53c-1.76-0.66-2.66-2.62-2.01-4.38l0,0c0.66-1.76,2.62-2.66,4.38-2.01l0,0
						c1.76,0.66,2.66,2.62,2.01,4.38l0,0C96.84,167.28,94.88,168.18,93.12,167.53z"/>
				</g>
			</g>
			<path class="st16" d="M79.12,108.84c0.9,0.17,2.28-0.09,2.96-0.44c0.67-0.35,1.31-2.4,1.52-3.87c0.21-1.47-1.68-1.28-1.68-1.28
				s0.74-0.29,1.94-0.46c1.2-0.16,1.68-1.54-0.06-1.52c-1.74,0.02-3.44,0.85-5.05,4.16c0,0-1.66,3.07,0.01,4.4L79.12,108.84z"/>
			<path class="st16" d="M158.34,111.55c0.01-1.16-2.01-3.03-2.56-2.28c-0.55,0.75-2.08,3.44-1.82,4.76
				c0.26,1.32,0.93,2.31,0.93,2.31l-0.38,1.03C154.5,117.37,158.3,116.6,158.34,111.55z"/>
			<g>
				<path class="st24" d="M127.1,25.42l-75.66,6.25c-1.82,0.15-3.18,1.75-3.03,3.58l1.83,22.14c0.15,1.82,1.75,3.18,3.58,3.03
					l7.46-0.62l3.62-0.3c0.71,0.78,2.53,2.75,3.29,3.46c0.68,0.65,1.83,0.55,2.4-0.2c0.63-0.83,2.1-3.07,2.67-3.96l18.39-1.52
					l37.83-3.13c1.82-0.15,3.18-1.75,3.03-3.58l-1.83-22.14C130.53,26.63,128.92,25.27,127.1,25.42z"/>
				<path class="st24" d="M180.22,24.15l-23.84-2.85c-1.02-0.12-1.95,0.61-2.07,1.63l-2.85,23.84c-0.12,1.02,0.61,1.95,1.63,2.07
					l23.84,2.85c1.02,0.12,1.95-0.61,2.07-1.63l2.85-23.84C181.97,25.2,181.24,24.27,180.22,24.15z"/>
				<path class="st24" d="M76.18,74.12c-0.72-2.28-3.15-3.54-5.43-2.82l-27.82,8.81c-2.28,0.72-3.54,3.15-2.82,5.43l5.74,18.11
					c0.72,2.28,3.15,3.54,5.43,2.82l2.72-0.86c0,0,5.07,3.52,6.84,4.57c1.28,0.75,3.01,0.21,3.62-1.15
					c0.85-1.88,2.96-7.68,2.96-7.68l11.68-3.7c2.28-0.72,3.54-3.15,2.82-5.43L76.18,74.12z"/>
				<path class="st24" d="M169.52,82.33c-0.27-1.15-1.8-1.4-2.42-0.39l-2.51,4.08l-1.41-5.92c-0.29-1.2-1.49-1.94-2.68-1.65
					l-16.28,3.88c-1.2,0.29-1.94,1.49-1.65,2.68l3.88,16.28c0.29,1.2,1.49,1.94,2.68,1.65l16.28-3.88c1.2-0.29,1.94-1.49,1.65-2.68
					l-1.41-5.92l4.08,2.51c1.01,0.62,2.26-0.29,1.99-1.44L169.52,82.33z"/>
				<path class="st24" d="M22.62,55.02c-0.85-1.78-3.42-1.64-4.08,0.22l-5.25,14.85c-0.66,1.86,1.26,3.58,3.03,2.73l10.05-4.8
					c1.1-0.53,1.57-1.84,1.04-2.95L22.62,55.02z"/>
				<path class="st24" d="M27.9,14.48c-3.41,1.08-5.3,4.72-4.22,8.13c1.08,3.41,4.72,5.3,8.13,4.22c3.41-1.08,5.3-4.72,4.22-8.13
					C34.95,15.29,31.31,13.4,27.9,14.48z"/>
				<path class="st24" d="M205.88,178.47c-1.92-1.44-4.64-1.05-6.08,0.87c-1.44,1.92-1.05,4.64,0.87,6.08
					c1.92,1.44,4.64,1.05,6.08-0.87C208.19,182.63,207.8,179.91,205.88,178.47z"/>
				
					<ellipse transform="matrix(0.6618 -0.7497 0.7497 0.6618 20.9432 167.9447)" class="st24" cx="196.6" cy="60.76" rx="8.2" ry="8.2"/>
				<path class="st24" d="M63.35,120.2c-5.87,1.83-9.15,8.08-7.31,13.96c1.83,5.87,8.08,9.15,13.96,7.31
					c5.87-1.83,9.15-8.08,7.31-13.96C75.47,121.64,69.22,118.37,63.35,120.2z"/>
			</g>
			<g>
				<g>
					<linearGradient id="SVGID_23_" gradientUnits="userSpaceOnUse" x1="112.7775" y1="80.2922" x2="56.0276" y2="-19.2077">
						<stop  offset="0" style="stop-color:#00FFFF"/>
						<stop  offset="0.3693" style="stop-color:#B3D780"/>
						<stop  offset="0.7613" style="stop-color:#E9E61B"/>
						<stop  offset="1" style="stop-color:#FDB515"/>
					</linearGradient>
					<path class="st37" d="M128.42,20.02l-81.17,6.71c-1.96,0.16-3.41,1.88-3.25,3.84l1.96,23.75c0.16,1.96,1.88,3.41,3.84,3.25
						l8-0.66l3.88-0.32c0.77,0.83,2.72,2.95,3.53,3.72c0.73,0.69,1.96,0.59,2.57-0.21c0.67-0.89,2.25-3.3,2.87-4.25l19.73-1.63
						l40.58-3.35c1.96-0.16,3.41-1.88,3.25-3.84l-1.96-23.75C132.09,21.32,130.38,19.86,128.42,20.02z"/>
					<g>
						<path class="st14" d="M63.77,41.62c0.74-0.78,1.16-1.86,1.06-3.02l-0.16-1.93c-0.18-2.14-1.98-3.88-4.13-3.76
							c-2.22,0.12-3.89,2.04-3.71,4.25L57,39.25c0.1,1.16,0.69,2.15,1.54,2.8c-2.56,1.1-4.43,3.43-4.9,6.2
							c-0.19,1.08,0.73,2.03,1.82,1.94l12.68-1.05c1.09-0.09,1.84-1.18,1.48-2.21C68.7,44.28,66.48,42.28,63.77,41.62z"/>
					</g>
					<g>
						<g>
							<path class="st14" d="M96.52,29.93l-16.18,1.34c-1.32,0.11-2.31,1.27-2.2,2.6l0.66,7.95c0.11,1.32,1.27,2.31,2.6,2.2
								l1.58-0.13c0,0,2.31,2.54,3.15,3.32c0.6,0.57,1.61,0.48,2.1-0.17c0.69-0.91,2.56-3.8,2.56-3.8l6.79-0.56
								c1.32-0.11,2.31-1.27,2.2-2.6l-0.66-7.95C99.01,30.8,97.84,29.82,96.52,29.93z"/>
						</g>
						<g>
							<path class="st13" d="M82.13,35.31c-0.51,0-0.95-0.4-1-0.92c-0.04-0.55,0.36-1.03,0.92-1.08l13.12-1.08
								c0.54-0.05,1.03,0.36,1.08,0.91c0.04,0.55-0.36,1.03-0.92,1.08L82.22,35.3C82.19,35.31,82.16,35.31,82.13,35.31z"/>
						</g>
						<g>
							<path class="st13" d="M82.42,38.75c-0.51,0-0.95-0.4-1-0.92c-0.04-0.55,0.36-1.03,0.92-1.08l13.11-1.08
								c0.54-0.05,1.03,0.36,1.08,0.91c0.04,0.55-0.36,1.03-0.92,1.08L82.5,38.74C82.48,38.75,82.45,38.75,82.42,38.75z"/>
						</g>
						<g>
							<path class="st13" d="M82.7,42.19c-0.51,0-0.95-0.4-1-0.92c-0.04-0.55,0.36-1.03,0.92-1.08l5.91-0.49
								c0.54-0.05,1.03,0.36,1.08,0.91c0.04,0.55-0.36,1.03-0.92,1.08l-5.91,0.49C82.76,42.19,82.73,42.19,82.7,42.19z"/>
						</g>
					</g>
					<g>
						<path class="st14" d="M126.87,40.98c-0.13-1.62-0.79-3.08-1.79-4.22l-0.14-1.71c-0.24-2.89-2.52-5.11-5.31-5.37l-0.04-0.5
							c-0.05-0.57-0.54-0.99-1.11-0.94c-0.57,0.05-0.99,0.54-0.94,1.11l0.04,0.5c-2.71,0.71-4.6,3.28-4.36,6.16l0.14,1.71
							c0,0,0,0,0,0c-0.79,1.29-1.2,2.83-1.07,4.45l0.06,0.74c0.03,0.38,0.36,0.66,0.74,0.63l2.9-0.24
							c-0.02,0.21,0.05,0.44,0.27,0.58c1.03,0.64,2.27,0.96,3.57,0.86c1.3-0.11,2.47-0.63,3.38-1.43c0.19-0.17,0.23-0.41,0.17-0.61
							l2.9-0.24c0.38-0.03,0.66-0.36,0.63-0.74L126.87,40.98z"/>
					</g>
				</g>
				<g>
					<path class="st26" d="M114.42,42.6c0.14,1.71-1.13,3.2-2.83,3.34c-1.71,0.14-3.2-1.13-3.34-2.83c-0.14-1.71,1.13-3.2,2.83-3.34
						C112.78,39.63,114.28,40.89,114.42,42.6z"/>
				</g>
			</g>
			<g>
				<g>
					<path class="st27" d="M181.87,48.2l-25.58-3.06c-1.1-0.13-1.88-1.13-1.75-2.22l3.06-25.58c0.13-1.1,1.13-1.88,2.22-1.75
						l25.58,3.06c1.1,0.13,1.88,1.13,1.75,2.22l-3.06,25.58C183.96,47.55,182.97,48.33,181.87,48.2z"/>
				</g>
				<g>
					<path class="st14" d="M157.52,41.29l2.59-21.66c0.08-0.66,0.68-1.14,1.34-1.06l21.66,2.59c0.66,0.08,1.14,0.68,1.06,1.34
						l-2.59,21.66c-0.08,0.66-0.68,1.14-1.34,1.06l-21.66-2.59C157.92,42.55,157.44,41.95,157.52,41.29z"/>
				</g>
				<g>
					<path class="st13" d="M171.42,33.86l-2.66,2.09c-0.49,0.38-1.2,0.3-1.58-0.19l0,0c-0.38-0.49-1.09-0.57-1.58-0.19l-3.94,3.1
						c-0.79,0.62-0.43,1.89,0.56,2.01l0.46,0.06l9.28,1.11l5.22,0.62c1,0.12,1.64-1.03,1.02-1.82l-5.19-6.6
						C172.62,33.56,171.91,33.48,171.42,33.86z"/>
				</g>
				<path class="st13" d="M166.64,29.39c-0.13,1.09-1.12,1.87-2.21,1.74c-1.09-0.13-1.87-1.12-1.74-2.21
					c0.13-1.09,1.12-1.87,2.21-1.74C165.99,27.31,166.77,28.3,166.64,29.39z"/>
			</g>
			<g>
				<g>
					<path class="st14" d="M65.97,67.17l-29.84,9.45c-2.44,0.77-3.8,3.38-3.02,5.82l6.15,19.43c0.77,2.44,3.38,3.8,5.82,3.02
						l2.92-0.92c0,0,5.44,3.78,7.34,4.9c1.37,0.81,3.23,0.22,3.88-1.23c0.91-2.01,3.18-8.23,3.18-8.23l12.53-3.97
						c2.44-0.77,3.8-3.38,3.02-5.82L71.8,70.2C71.02,67.75,68.41,66.4,65.97,67.17z"/>
				</g>
				<g>
					<path class="st13" d="M66.06,77.25l-24.19,7.66c-0.79,0.25-1.63-0.19-1.88-0.98c-0.25-0.79,0.19-1.63,0.98-1.88l24.19-7.66
						c0.79-0.25,1.63,0.19,1.88,0.98C67.28,76.16,66.85,77,66.06,77.25z"/>
				</g>
				<g>
					<path class="st13" d="M68.22,84.08l-24.19,7.66c-0.79,0.25-1.63-0.19-1.88-0.98c-0.25-0.79,0.19-1.63,0.98-1.88l24.19-7.66
						c0.79-0.25,1.63,0.19,1.88,0.98C69.45,82.99,69.01,83.83,68.22,84.08z"/>
				</g>
				<g>
					<path class="st13" d="M57.09,95.11l-10.91,3.45c-0.79,0.25-1.63-0.19-1.88-0.98c-0.25-0.79,0.19-1.63,0.98-1.88l10.91-3.45
						c0.79-0.25,1.63,0.19,1.88,0.98C58.32,94.02,57.88,94.86,57.09,95.11z"/>
				</g>
			</g>
			<g>
				<g>
					<path class="st28" d="M169.04,77.52l-2.7,4.38l-1.51-6.35c-0.31-1.28-1.59-2.08-2.88-1.77l-17.47,4.16
						c-1.28,0.31-2.08,1.59-1.77,2.88l4.16,17.47c0.31,1.28,1.59,2.08,2.88,1.77l17.47-4.16c1.28-0.31,2.08-1.59,1.77-2.88
						l-1.51-6.35l4.38,2.7c1.08,0.67,2.43-0.31,2.13-1.54l-2.36-9.89C171.34,76.71,169.7,76.44,169.04,77.52z"/>
				</g>
				<polyline class="st2" points="152.74,82.22 159.12,86.15 155.19,92.53 				"/>
			</g>
			<g>
				<g>
					<path class="st29" d="M21.48,62.56l-5.15-10.79c-0.91-1.91-3.67-1.76-4.37,0.23L6.32,67.94c-0.7,1.99,1.35,3.84,3.26,2.93
						l10.79-5.15C21.54,65.15,22.05,63.74,21.48,62.56z"/>
				</g>
				<path class="st2" d="M18.16,60.79l-1.25-1.97L17,58.59c0.1-0.27-0.05-0.57-0.32-0.66c-0.27-0.1-0.57,0.05-0.66,0.32l-1.75,4.94
					c-0.33-0.33-0.78-0.62-1.32-0.81c-1.33-0.47-2.66-0.15-2.96,0.71c-0.31,0.86,0.52,1.95,1.85,2.42c1.31,0.46,2.62,0.16,2.95-0.68
					c0-0.01,0.01-0.02,0.01-0.02l1.22-3.45l0.73,1.15c0.27,0.43,0.93,0.36,1.1-0.12l0.37-1.06C18.29,61.14,18.27,60.95,18.16,60.79z
					"/>
			</g>
			<g>
				<g>
					<path class="st26" d="M32.56,14.56c1.16,3.66-0.87,7.56-4.53,8.72c-3.66,1.16-7.56-0.87-8.72-4.53
						c-1.16-3.66,0.87-7.56,4.53-8.72C27.5,8.87,31.41,10.9,32.56,14.56z"/>
				</g>
				<path class="st2" d="M28.64,13.31c-1.23-0.72-2.8-0.25-3.45,1c-1.25-0.65-2.8-0.13-3.39,1.17c-0.56,1.21-0.01,2.65,1.17,3.27
					l3.48,1.8c0.48,0.25,1.06,0.06,1.31-0.41l1.8-3.48C30.18,15.47,29.8,13.98,28.64,13.31z"/>
			</g>
			<g>
				<g>
					<path class="st26" d="M210.84,187.71c-1.55,2.06-4.47,2.47-6.53,0.93c-2.06-1.55-2.47-4.47-0.93-6.53
						c1.55-2.06,4.47-2.47,6.53-0.93C211.97,182.73,212.39,185.65,210.84,187.71z"/>
				</g>
				<path class="st2" d="M209.99,185.08c-0.09-0.95-0.95-1.62-1.89-1.49c-0.13-0.94-1.02-1.58-1.96-1.4
					c-0.88,0.17-1.45,1.03-1.33,1.91l0.37,2.6c0.05,0.36,0.38,0.6,0.74,0.55l2.6-0.37C209.41,186.76,210.08,185.97,209.99,185.08z"
					/>
			</g>
			<g>
				<linearGradient id="SVGID_24_" gradientUnits="userSpaceOnUse" x1="192.7657" y1="71.1271" x2="245.2658" y2="-12.873">
					<stop  offset="0" style="stop-color:#00FFFF"/>
					<stop  offset="0.6927" style="stop-color:#9E005D"/>
					<stop  offset="1" style="stop-color:#ED1E79"/>
				</linearGradient>
				<circle class="st38" cx="202.45" cy="55.63" r="8.8"/>
				<g>
					<path class="st2" d="M205.65,51.08c-0.35-0.4-0.94-0.46-1.36-0.11c-0.02,0.02-1.06,1.11-2.62,2.11l-0.83-0.34
						c-0.07-0.03-0.15,0.01-0.18,0.07l-1.79,4.4c-0.03,0.07,0.01,0.15,0.07,0.18l0.62,0.25c0.1,0.86,0.66,1.6,1.47,1.93l0.37,0.15
						l2.41,0.98l0.54,0.22c0.49,0.2,1.05-0.04,1.25-0.53c0.1-0.25,0.09-0.52-0.01-0.75l0.39,0.16c0.49,0.2,1.05-0.04,1.25-0.53
						c0.11-0.28,0.08-0.58-0.05-0.83c0.39,0.02,0.77-0.21,0.93-0.59c0.2-0.49-0.04-1.05-0.53-1.25l-0.01,0
						c0.23-0.09,0.43-0.27,0.53-0.53c0.2-0.49-0.04-1.05-0.53-1.25l-3.39-1.38C205.03,52.75,206.26,51.77,205.65,51.08z"/>
					<path class="st2" d="M196.81,56.79l1.13,0.46c0.18,0.07,0.38-0.01,0.45-0.19l1.83-4.5c0.07-0.18-0.01-0.38-0.19-0.45
						l-1.13-0.46c-0.18-0.07-0.38,0.01-0.45,0.19l-1.83,4.5C196.55,56.52,196.63,56.72,196.81,56.79z"/>
				</g>
			</g>
			<g>
				<linearGradient id="SVGID_25_" gradientUnits="userSpaceOnUse" x1="30.1788" y1="165.4707" x2="126.1788" y2="66.8042">
					<stop  offset="0" style="stop-color:#00FFFF"/>
					<stop  offset="0.6927" style="stop-color:#9E005D"/>
					<stop  offset="1" style="stop-color:#ED1E79"/>
				</linearGradient>
				<circle class="st39" cx="61.67" cy="133.11" r="11.95"/>
				<g>
					<path class="st2" d="M61.09,125.57c-0.71-0.11-1.38,0.33-1.52,1.06c0,0.03-0.15,2.08-0.93,4.47l-1.17,0.36
						c-0.1,0.03-0.15,0.13-0.12,0.23l1.92,6.15c0.03,0.1,0.13,0.15,0.23,0.12l0.87-0.27c0.86,0.82,2.07,1.11,3.2,0.76l0.51-0.16
						l3.38-1.05l0.76-0.24c0.69-0.21,1.07-0.95,0.86-1.64c-0.11-0.35-0.35-0.62-0.66-0.77l0.54-0.17c0.69-0.21,1.07-0.95,0.86-1.64
						c-0.12-0.39-0.42-0.68-0.77-0.82c0.43-0.32,0.63-0.89,0.46-1.43c-0.21-0.69-0.95-1.07-1.64-0.86l-0.01,0
						c0.16-0.3,0.21-0.66,0.11-1.01c-0.22-0.69-0.95-1.07-1.64-0.86l-4.75,1.48C61.87,127.86,62.32,125.76,61.09,125.57z"/>
					<path class="st2" d="M56.76,139.2l1.58-0.49c0.25-0.08,0.39-0.34,0.31-0.59l-1.97-6.29c-0.08-0.25-0.34-0.39-0.59-0.31
						l-1.58,0.49c-0.25,0.08-0.39,0.34-0.31,0.59l1.97,6.29C56.25,139.14,56.51,139.28,56.76,139.2z"/>
				</g>
			</g>
		</g>
		<g>
			<g>
				<text transform="matrix(1 0 0 1 -295.476 879.9076)"><tspan x="0" y="0" class="st40" style="font-family:'Rubik-MediumItalic'; font-size:8px;">company</tspan><tspan x="31.26" y="0" class="st40" style="font-family:'Rubik-Light'; font-size:8px;"> </tspan><tspan x="32.96" y="0" class="st40" style="font-family:'Rubik-Black'; font-size:8px;">logo</tspan></text>
			</g>
			<text transform="matrix(1 0 0 1 -295.476 974.3578)"><tspan x="0" y="0" style="font-family:'Rubik-Medium'; font-size:25px;">Social Media</tspan><tspan x="0" y="26" style="font-family:'Rubik-Medium'; font-size:25px;">Services</tspan></text>
			<rect x="-295.48" y="1023.11" style="fill:none;" width="125.67" height="37.67"/>
			<text transform="matrix(1 0 0 1 -295.4761 1026.6575)"><tspan x="0" y="0" style="fill:#C1C1C1; font-family:'Rubik-Regular'; font-size:5px;">Ut wisi enim ad minim veniam, quis nostrud exerci tation </tspan><tspan x="0" y="6" style="fill:#C1C1C1; font-family:'Rubik-Regular'; font-size:5px;">ullamcorper suscipit lobortis nisl ut aliquip ex ea commodo </tspan><tspan x="0" y="12" style="fill:#C1C1C1; font-family:'Rubik-Regular'; font-size:5px;">consequat. </tspan><tspan x="0" y="24" style="fill:#C1C1C1; font-family:'Rubik-Regular'; font-size:5px;">Lorem ipsum!</tspan></text>
			<g>
				<path class="st40" d="M24.99,888.44h38.06c0.81,0,1.47-0.66,1.47-1.47v-12.4c0-0.81-0.66-1.47-1.47-1.47H24.99
					c-0.81,0-1.47,0.66-1.47,1.47v12.4C23.52,887.78,24.18,888.44,24.99,888.44z"/>
			</g>
			<g>
				<text transform="matrix(1 0 0 1 32.2888 882.5873)" class="st2" style="font-family:'Rubik-Regular'; font-size:5px;">Get Started</text>
			</g>
			<g>
				<text transform="matrix(1 0 0 1 -119.4827 882.587)" style="fill:#C1C1C1; font-family:'Rubik-Regular'; font-size:5px;">Home</text>
			</g>
			<g>
				<text transform="matrix(1 0 0 1 -89.748 882.5873)" style="fill:#C1C1C1; font-family:'Rubik-Regular'; font-size:5px;">About Us</text>
			</g>
			<g>
				<text transform="matrix(1 0 0 1 -52.241 882.5873)" style="fill:#C1C1C1; font-family:'Rubik-Regular'; font-size:5px;">Services</text>
			</g>
			<g>
				<text transform="matrix(1 0 0 1 -16.7566 882.5873)" style="fill:#C1C1C1; font-family:'Rubik-Regular'; font-size:5px;">Contact Us</text>
			</g>
			<g>
				<path class="st40" d="M-285.33,1095.4h33.96c5.6,0,10.14-4.54,10.14-10.14l0,0c0-5.6-4.54-10.14-10.14-10.14h-33.96
					c-5.6,0-10.14,4.54-10.14,10.14l0,0C-295.48,1090.85-290.93,1095.4-285.33,1095.4z"/>
			</g>
			<g>
				<text transform="matrix(1 0 0 1 -284.0135 1087.6508)" class="st2" style="font-family:'Rubik-Regular'; font-size:6.6158px;">Learn more</text>
			</g>
			<g>
				
					<text transform="matrix(1 0 0 1 -233.9351 1087.6508)" class="st40" style="font-family:'Rubik-Regular'; font-size:5px; text-decoration: underline;">or contact</text>
			</g>
		</g>
	</g>
	<g>
		<g>
			<g>
				<defs>
					<path id="SVGID_26_" d="M255.51,642.95h-443c-1.93,0-3.5-1.57-3.5-3.5v-293c0-1.93,1.57-3.5,3.5-3.5h443
						c1.93,0,3.5,1.57,3.5,3.5v293C259.01,641.38,257.44,642.95,255.51,642.95z"/>
				</defs>
				<clipPath id="SVGID_27_">
					<use xlink:href="#SVGID_26_"  style="overflow:visible;"/>
				</clipPath>
			</g>
		</g>
	</g>
</g>
<g id="Designed_by_Freepik">
	<g>
		<g>
			<g>
				<g>
					<path class="st41" d="M-185.17,1225.4v-0.16c-0.22,0.25-0.43,0.45-0.64,0.61c-0.21,0.16-0.44,0.28-0.69,0.36
						c-0.25,0.08-0.52,0.12-0.81,0.12c-0.39,0-0.75-0.08-1.08-0.25c-0.33-0.16-0.62-0.4-0.86-0.7c-0.24-0.3-0.42-0.66-0.55-1.07
						c-0.12-0.41-0.19-0.86-0.19-1.34c0-1.01,0.25-1.8,0.74-2.37c0.49-0.57,1.15-0.85,1.95-0.85c0.47,0,0.86,0.08,1.18,0.24
						c0.32,0.16,0.63,0.41,0.94,0.74v-2.39c0-0.33,0.07-0.58,0.2-0.75c0.13-0.17,0.32-0.26,0.57-0.26c0.25,0,0.43,0.08,0.57,0.23
						c0.13,0.16,0.2,0.39,0.2,0.69v7.15c0,0.31-0.07,0.54-0.21,0.69c-0.14,0.15-0.33,0.23-0.55,0.23c-0.22,0-0.4-0.08-0.55-0.24
						C-185.1,1225.93-185.17,1225.7-185.17,1225.4z M-188.36,1223.02c0,0.44,0.07,0.81,0.2,1.12c0.14,0.31,0.32,0.54,0.56,0.7
						c0.24,0.16,0.5,0.24,0.78,0.24c0.29,0,0.54-0.07,0.78-0.22c0.24-0.15,0.42-0.38,0.56-0.68c0.14-0.31,0.21-0.69,0.21-1.15
						c0-0.43-0.07-0.8-0.21-1.11c-0.14-0.31-0.33-0.55-0.57-0.71c-0.24-0.16-0.5-0.25-0.79-0.25c-0.3,0-0.56,0.08-0.8,0.25
						c-0.23,0.17-0.41,0.41-0.54,0.72C-188.29,1222.24-188.36,1222.6-188.36,1223.02z"/>
					<path class="st41" d="M-178.02,1223.43h-3.17c0,0.37,0.08,0.69,0.22,0.97c0.14,0.28,0.34,0.49,0.58,0.64
						c0.24,0.14,0.5,0.21,0.79,0.21c0.19,0,0.37-0.02,0.53-0.07c0.16-0.05,0.32-0.12,0.47-0.21c0.15-0.1,0.29-0.2,0.42-0.31
						c0.13-0.11,0.29-0.26,0.49-0.45c0.08-0.07,0.2-0.11,0.36-0.11c0.17,0,0.3,0.05,0.4,0.14c0.1,0.09,0.15,0.22,0.15,0.39
						c0,0.15-0.06,0.32-0.17,0.51c-0.12,0.2-0.29,0.38-0.52,0.56c-0.23,0.18-0.52,0.33-0.87,0.45c-0.35,0.12-0.75,0.18-1.21,0.18
						c-1.04,0-1.85-0.3-2.43-0.89c-0.58-0.59-0.87-1.4-0.87-2.42c0-0.48,0.07-0.92,0.21-1.33c0.14-0.41,0.35-0.76,0.62-1.05
						c0.27-0.29,0.61-0.52,1.01-0.67c0.4-0.16,0.84-0.23,1.33-0.23c0.63,0,1.18,0.13,1.63,0.4c0.45,0.27,0.79,0.61,1.02,1.04
						c0.23,0.42,0.34,0.86,0.34,1.29c0,0.41-0.12,0.67-0.35,0.79C-177.27,1223.37-177.6,1223.43-178.02,1223.43z M-181.19,1222.51
						h2.94c-0.04-0.55-0.19-0.97-0.45-1.24c-0.26-0.28-0.6-0.41-1.02-0.41c-0.4,0-0.74,0.14-0.99,0.42
						C-180.98,1221.55-181.14,1221.96-181.19,1222.51z"/>
					<path class="st41" d="M-170.64,1224.21c0,0.45-0.11,0.83-0.33,1.15c-0.22,0.32-0.54,0.56-0.96,0.72
						c-0.43,0.16-0.94,0.25-1.55,0.25c-0.58,0-1.08-0.09-1.5-0.27c-0.42-0.18-0.72-0.4-0.92-0.67c-0.2-0.27-0.3-0.54-0.3-0.81
						c0-0.18,0.06-0.33,0.19-0.46c0.13-0.13,0.29-0.19,0.48-0.19c0.17,0,0.3,0.04,0.39,0.12c0.09,0.08,0.18,0.2,0.26,0.35
						c0.17,0.29,0.37,0.5,0.6,0.65c0.23,0.14,0.55,0.21,0.95,0.21c0.32,0,0.59-0.07,0.8-0.22c0.21-0.15,0.31-0.31,0.31-0.5
						c0-0.29-0.11-0.49-0.32-0.62c-0.22-0.13-0.57-0.26-1.07-0.37c-0.56-0.14-1.01-0.28-1.36-0.44c-0.35-0.15-0.63-0.35-0.84-0.6
						c-0.21-0.25-0.31-0.56-0.31-0.92c0-0.32,0.1-0.63,0.29-0.92c0.19-0.29,0.48-0.52,0.86-0.69c0.38-0.17,0.83-0.26,1.37-0.26
						c0.42,0,0.8,0.04,1.13,0.13c0.33,0.09,0.61,0.2,0.84,0.35c0.22,0.15,0.39,0.31,0.51,0.49c0.12,0.18,0.17,0.35,0.17,0.52
						c0,0.19-0.06,0.34-0.19,0.46c-0.12,0.12-0.3,0.18-0.53,0.18c-0.17,0-0.31-0.05-0.42-0.14c-0.12-0.09-0.25-0.24-0.4-0.43
						c-0.12-0.16-0.27-0.29-0.43-0.38c-0.17-0.1-0.39-0.14-0.68-0.14c-0.29,0-0.54,0.06-0.73,0.19c-0.19,0.12-0.29,0.28-0.29,0.47
						c0,0.17,0.07,0.31,0.21,0.42c0.14,0.11,0.33,0.2,0.58,0.27c0.24,0.07,0.57,0.16,1,0.26c0.5,0.12,0.91,0.27,1.23,0.44
						c0.32,0.17,0.56,0.37,0.72,0.6C-170.72,1223.65-170.64,1223.91-170.64,1224.21z"/>
					<path class="st41" d="M-168.98,1218.98c-0.23,0-0.42-0.07-0.58-0.21c-0.16-0.14-0.24-0.33-0.24-0.59
						c0-0.23,0.08-0.42,0.25-0.57c0.16-0.15,0.36-0.22,0.57-0.22c0.21,0,0.4,0.07,0.56,0.2c0.16,0.13,0.24,0.33,0.24,0.59
						c0,0.25-0.08,0.44-0.24,0.58C-168.58,1218.91-168.77,1218.98-168.98,1218.98z M-168.18,1220.66v4.68
						c0,0.32-0.08,0.57-0.23,0.74c-0.15,0.17-0.35,0.25-0.59,0.25c-0.24,0-0.43-0.08-0.58-0.26c-0.15-0.17-0.22-0.41-0.22-0.73
						v-4.64c0-0.32,0.07-0.56,0.22-0.72c0.15-0.16,0.34-0.24,0.58-0.24c0.24,0,0.43,0.08,0.59,0.24
						C-168.26,1220.14-168.18,1220.37-168.18,1220.66z"/>
					<path class="st41" d="M-161.08,1220.92v4.71c0,0.54-0.06,1-0.17,1.39c-0.11,0.39-0.3,0.71-0.55,0.96
						c-0.25,0.25-0.58,0.44-0.99,0.56c-0.41,0.12-0.92,0.18-1.53,0.18c-0.56,0-1.06-0.08-1.5-0.23c-0.44-0.16-0.78-0.36-1.01-0.61
						c-0.24-0.25-0.36-0.5-0.36-0.76c0-0.2,0.07-0.36,0.2-0.48c0.13-0.13,0.3-0.19,0.49-0.19c0.24,0,0.45,0.1,0.62,0.31
						c0.09,0.11,0.18,0.22,0.27,0.32c0.09,0.11,0.2,0.2,0.31,0.28c0.11,0.08,0.25,0.13,0.41,0.17c0.16,0.04,0.34,0.06,0.55,0.06
						c0.42,0,0.75-0.06,0.98-0.18c0.23-0.12,0.39-0.28,0.49-0.49c0.09-0.21,0.15-0.43,0.16-0.67c0.02-0.24,0.03-0.62,0.04-1.16
						c-0.25,0.35-0.54,0.61-0.86,0.8c-0.33,0.18-0.72,0.27-1.17,0.27c-0.54,0-1.02-0.14-1.42-0.42c-0.41-0.28-0.72-0.66-0.93-1.16
						c-0.22-0.5-0.33-1.07-0.33-1.73c0-0.49,0.07-0.93,0.2-1.32c0.13-0.39,0.32-0.72,0.57-0.99c0.25-0.27,0.53-0.47,0.85-0.61
						c0.32-0.14,0.67-0.2,1.06-0.2c0.46,0,0.86,0.09,1.19,0.26c0.34,0.18,0.65,0.45,0.94,0.83v-0.22c0-0.28,0.07-0.5,0.21-0.65
						c0.14-0.15,0.32-0.23,0.53-0.23c0.31,0,0.52,0.1,0.62,0.31C-161.13,1220.25-161.08,1220.54-161.08,1220.92z M-165.78,1222.98
						c0,0.66,0.14,1.15,0.43,1.49c0.29,0.34,0.66,0.5,1.11,0.5c0.27,0,0.52-0.07,0.76-0.22c0.24-0.14,0.43-0.36,0.59-0.65
						c0.15-0.29,0.23-0.64,0.23-1.06c0-0.66-0.15-1.18-0.44-1.54c-0.29-0.37-0.67-0.55-1.15-0.55c-0.46,0-0.83,0.18-1.11,0.53
						C-165.64,1221.83-165.78,1222.33-165.78,1222.98z"/>
					<path class="st41" d="M-158.51,1220.63v0.2c0.28-0.38,0.6-0.65,0.93-0.83c0.34-0.18,0.73-0.26,1.17-0.26
						c0.43,0,0.81,0.09,1.15,0.28c0.34,0.19,0.59,0.45,0.75,0.79c0.11,0.2,0.18,0.41,0.21,0.64c0.03,0.23,0.05,0.52,0.05,0.88v3.02
						c0,0.32-0.07,0.57-0.22,0.74c-0.15,0.17-0.34,0.25-0.58,0.25c-0.24,0-0.44-0.08-0.59-0.26c-0.15-0.17-0.23-0.41-0.23-0.73v-2.7
						c0-0.53-0.07-0.94-0.22-1.23c-0.15-0.28-0.44-0.42-0.89-0.42c-0.29,0-0.55,0.09-0.79,0.26c-0.24,0.17-0.41,0.41-0.52,0.71
						c-0.08,0.24-0.12,0.69-0.12,1.35v2.03c0,0.33-0.08,0.58-0.23,0.74c-0.15,0.16-0.35,0.25-0.59,0.25c-0.23,0-0.43-0.08-0.58-0.26
						c-0.15-0.17-0.23-0.41-0.23-0.73v-4.68c0-0.31,0.07-0.54,0.2-0.69c0.13-0.15,0.32-0.23,0.55-0.23c0.14,0,0.27,0.03,0.39,0.1
						c0.11,0.07,0.21,0.17,0.28,0.3C-158.54,1220.28-158.51,1220.44-158.51,1220.63z"/>
					<path class="st41" d="M-148.65,1223.43h-3.17c0,0.37,0.08,0.69,0.22,0.97c0.14,0.28,0.34,0.49,0.58,0.64
						c0.24,0.14,0.5,0.21,0.79,0.21c0.19,0,0.37-0.02,0.53-0.07c0.16-0.05,0.31-0.12,0.47-0.21c0.15-0.1,0.29-0.2,0.42-0.31
						c0.13-0.11,0.29-0.26,0.49-0.45c0.08-0.07,0.2-0.11,0.36-0.11c0.17,0,0.3,0.05,0.4,0.14c0.1,0.09,0.15,0.22,0.15,0.39
						c0,0.15-0.06,0.32-0.17,0.51c-0.12,0.2-0.29,0.38-0.52,0.56c-0.23,0.18-0.52,0.33-0.87,0.45c-0.35,0.12-0.75,0.18-1.21,0.18
						c-1.04,0-1.85-0.3-2.43-0.89c-0.58-0.59-0.87-1.4-0.87-2.42c0-0.48,0.07-0.92,0.21-1.33c0.14-0.41,0.35-0.76,0.62-1.05
						c0.27-0.29,0.61-0.52,1.01-0.67c0.4-0.16,0.84-0.23,1.33-0.23c0.63,0,1.18,0.13,1.63,0.4c0.45,0.27,0.79,0.61,1.02,1.04
						c0.23,0.42,0.34,0.86,0.34,1.29c0,0.41-0.12,0.67-0.35,0.79C-147.89,1223.37-148.22,1223.43-148.65,1223.43z M-151.82,1222.51
						h2.94c-0.04-0.55-0.19-0.97-0.45-1.24c-0.26-0.28-0.6-0.41-1.02-0.41c-0.4,0-0.74,0.14-0.99,0.42
						C-151.6,1221.55-151.76,1221.96-151.82,1222.51z"/>
					<path class="st41" d="M-142.04,1225.4v-0.16c-0.22,0.25-0.43,0.45-0.64,0.61c-0.21,0.16-0.44,0.28-0.69,0.36
						c-0.25,0.08-0.52,0.12-0.81,0.12c-0.39,0-0.75-0.08-1.08-0.25c-0.33-0.16-0.62-0.4-0.86-0.7c-0.24-0.3-0.42-0.66-0.55-1.07
						c-0.12-0.41-0.19-0.86-0.19-1.34c0-1.01,0.25-1.8,0.74-2.37c0.49-0.57,1.15-0.85,1.95-0.85c0.47,0,0.86,0.08,1.18,0.24
						c0.32,0.16,0.63,0.41,0.94,0.74v-2.39c0-0.33,0.07-0.58,0.2-0.75c0.13-0.17,0.32-0.26,0.57-0.26c0.25,0,0.43,0.08,0.57,0.23
						c0.13,0.16,0.2,0.39,0.2,0.69v7.15c0,0.31-0.07,0.54-0.21,0.69c-0.14,0.15-0.33,0.23-0.55,0.23c-0.22,0-0.4-0.08-0.55-0.24
						C-141.97,1225.93-142.04,1225.7-142.04,1225.4z M-145.23,1223.02c0,0.44,0.07,0.81,0.2,1.12c0.14,0.31,0.32,0.54,0.56,0.7
						c0.24,0.16,0.5,0.24,0.78,0.24c0.29,0,0.55-0.07,0.78-0.22c0.24-0.15,0.42-0.38,0.56-0.68c0.14-0.31,0.21-0.69,0.21-1.15
						c0-0.43-0.07-0.8-0.21-1.11c-0.14-0.31-0.33-0.55-0.57-0.71c-0.24-0.16-0.5-0.25-0.79-0.25c-0.3,0-0.56,0.08-0.8,0.25
						c-0.23,0.17-0.41,0.41-0.54,0.72C-145.16,1222.24-145.23,1222.6-145.23,1223.02z"/>
					<path class="st41" d="M-135.42,1218.25v2.47c0.3-0.32,0.62-0.56,0.93-0.73c0.32-0.17,0.71-0.25,1.18-0.25
						c0.54,0,1.01,0.13,1.42,0.38c0.4,0.26,0.72,0.63,0.94,1.11c0.22,0.48,0.34,1.06,0.34,1.72c0,0.49-0.06,0.94-0.19,1.35
						c-0.12,0.41-0.31,0.76-0.54,1.07c-0.24,0.3-0.53,0.53-0.86,0.7c-0.34,0.16-0.71,0.25-1.12,0.25c-0.25,0-0.48-0.03-0.7-0.09
						c-0.22-0.06-0.41-0.14-0.56-0.23c-0.15-0.1-0.29-0.2-0.39-0.3c-0.11-0.1-0.25-0.26-0.43-0.46v0.16c0,0.3-0.07,0.54-0.22,0.69
						c-0.15,0.16-0.33,0.23-0.56,0.23c-0.23,0-0.41-0.08-0.55-0.23c-0.14-0.16-0.2-0.39-0.2-0.69v-7.08c0-0.33,0.07-0.58,0.2-0.74
						c0.13-0.17,0.32-0.25,0.56-0.25c0.25,0,0.44,0.08,0.58,0.24C-135.48,1217.73-135.42,1217.96-135.42,1218.25z M-135.34,1223.07
						c0,0.65,0.15,1.14,0.44,1.49c0.29,0.35,0.68,0.52,1.16,0.52c0.41,0,0.76-0.18,1.05-0.53c0.29-0.35,0.44-0.86,0.44-1.52
						c0-0.43-0.06-0.8-0.18-1.1c-0.12-0.31-0.3-0.55-0.52-0.72c-0.23-0.17-0.49-0.25-0.79-0.25c-0.31,0-0.58,0.08-0.83,0.25
						c-0.24,0.17-0.43,0.41-0.57,0.73C-135.27,1222.25-135.34,1222.63-135.34,1223.07z"/>
					<path class="st41" d="M-128.51,1226.53l0.15-0.36l-1.99-5.02c-0.12-0.29-0.18-0.5-0.18-0.63c0-0.14,0.04-0.27,0.11-0.39
						c0.07-0.12,0.17-0.21,0.29-0.29c0.12-0.07,0.25-0.11,0.39-0.11c0.23,0,0.41,0.07,0.53,0.22c0.12,0.15,0.22,0.36,0.31,0.64
						l1.37,3.99l1.3-3.71c0.1-0.3,0.2-0.54,0.28-0.71c0.08-0.17,0.17-0.29,0.26-0.34c0.09-0.06,0.22-0.09,0.39-0.09
						c0.12,0,0.24,0.03,0.35,0.1c0.11,0.07,0.2,0.15,0.26,0.26c0.06,0.11,0.09,0.23,0.09,0.35c-0.02,0.08-0.04,0.18-0.08,0.32
						c-0.04,0.14-0.08,0.28-0.13,0.42l-2.11,5.53c-0.18,0.49-0.36,0.87-0.53,1.15c-0.17,0.28-0.4,0.49-0.69,0.64
						c-0.29,0.15-0.67,0.22-1.16,0.22c-0.47,0-0.83-0.05-1.07-0.15c-0.24-0.1-0.36-0.29-0.36-0.56c0-0.19,0.06-0.33,0.17-0.43
						c0.11-0.1,0.28-0.15,0.5-0.15c0.09,0,0.17,0.01,0.26,0.04c0.1,0.02,0.19,0.04,0.27,0.04c0.19,0,0.33-0.03,0.44-0.08
						c0.11-0.05,0.2-0.15,0.29-0.29C-128.72,1226.99-128.62,1226.79-128.51,1226.53z"/>
				</g>
				<g>
					<path class="st41" d="M-105.04,1219.88h0.39v-0.49c0-0.51,0.06-0.91,0.19-1.21c0.13-0.3,0.35-0.52,0.65-0.65
						c0.31-0.14,0.73-0.2,1.26-0.2c0.95,0,1.42,0.23,1.42,0.7c0,0.15-0.05,0.28-0.15,0.38c-0.1,0.11-0.21,0.16-0.35,0.16
						c-0.06,0-0.17-0.01-0.33-0.04c-0.15-0.02-0.28-0.03-0.39-0.03c-0.29,0-0.48,0.09-0.57,0.26c-0.08,0.17-0.12,0.42-0.12,0.74
						v0.39h0.4c0.62,0,0.93,0.19,0.93,0.56c0,0.26-0.08,0.43-0.25,0.5c-0.16,0.07-0.39,0.11-0.68,0.11h-0.4v4.29
						c0,0.32-0.08,0.56-0.23,0.73c-0.15,0.17-0.35,0.25-0.59,0.25c-0.23,0-0.42-0.08-0.57-0.25c-0.15-0.17-0.23-0.41-0.23-0.73
						v-4.29h-0.45c-0.24,0-0.43-0.05-0.56-0.16c-0.13-0.11-0.2-0.25-0.2-0.42C-105.85,1220.07-105.58,1219.88-105.04,1219.88"/>
					<path class="st41" d="M-99.73,1223.99v1.35c0,0.33-0.08,0.57-0.23,0.74c-0.15,0.17-0.35,0.25-0.59,0.25
						c-0.24,0-0.43-0.08-0.58-0.25c-0.15-0.16-0.23-0.41-0.23-0.73v-4.51c0-0.73,0.26-1.09,0.79-1.09c0.27,0,0.46,0.08,0.58,0.26
						c0.12,0.17,0.18,0.42,0.2,0.76c0.19-0.33,0.39-0.58,0.59-0.76c0.21-0.17,0.48-0.26,0.82-0.26c0.34,0,0.67,0.08,0.99,0.26
						c0.32,0.17,0.48,0.4,0.48,0.68c0,0.2-0.07,0.36-0.2,0.49c-0.14,0.13-0.28,0.19-0.44,0.19c-0.06,0-0.21-0.04-0.43-0.11
						c-0.23-0.07-0.43-0.11-0.6-0.11c-0.24,0-0.43,0.06-0.58,0.19c-0.15,0.13-0.27,0.31-0.35,0.55c-0.08,0.25-0.14,0.54-0.17,0.88
						C-99.72,1223.09-99.73,1223.5-99.73,1223.99"/>
					<path class="st41" d="M-92.28,1223.43h-3.17c0.01,0.37,0.08,0.69,0.22,0.97c0.15,0.28,0.34,0.49,0.58,0.64
						c0.24,0.14,0.5,0.21,0.79,0.21c0.19,0,0.37-0.02,0.53-0.07c0.16-0.04,0.32-0.12,0.47-0.21c0.15-0.1,0.29-0.2,0.42-0.31
						c0.13-0.11,0.29-0.26,0.49-0.45c0.08-0.07,0.2-0.11,0.36-0.11c0.17,0,0.3,0.05,0.41,0.14c0.1,0.09,0.15,0.22,0.15,0.39
						c0,0.15-0.06,0.32-0.17,0.51c-0.12,0.2-0.29,0.39-0.52,0.57c-0.23,0.18-0.52,0.33-0.87,0.45c-0.35,0.12-0.75,0.18-1.21,0.18
						c-1.04,0-1.85-0.3-2.43-0.89c-0.58-0.6-0.87-1.4-0.87-2.42c0-0.48,0.07-0.92,0.22-1.33c0.14-0.41,0.35-0.76,0.62-1.05
						c0.27-0.29,0.61-0.52,1.01-0.67c0.4-0.16,0.84-0.23,1.33-0.23c0.63,0,1.18,0.13,1.63,0.4c0.45,0.26,0.8,0.61,1.02,1.03
						c0.23,0.43,0.34,0.86,0.34,1.3c0,0.41-0.12,0.67-0.35,0.79C-91.53,1223.37-91.86,1223.43-92.28,1223.43 M-95.45,1222.51h2.94
						c-0.04-0.55-0.19-0.97-0.45-1.24c-0.26-0.28-0.6-0.41-1.03-0.41c-0.4,0-0.74,0.14-0.99,0.42
						C-95.24,1221.55-95.4,1221.96-95.45,1222.51"/>
					<path class="st41" d="M-85.54,1223.43h-3.17c0,0.37,0.08,0.69,0.22,0.97c0.14,0.28,0.34,0.49,0.58,0.64
						c0.24,0.14,0.5,0.21,0.79,0.21c0.19,0,0.37-0.02,0.53-0.07c0.16-0.04,0.32-0.12,0.47-0.21c0.15-0.1,0.29-0.2,0.42-0.31
						c0.12-0.11,0.29-0.26,0.49-0.45c0.08-0.07,0.2-0.11,0.36-0.11c0.17,0,0.3,0.05,0.41,0.14c0.1,0.09,0.15,0.22,0.15,0.39
						c0,0.15-0.05,0.32-0.17,0.51c-0.11,0.2-0.28,0.39-0.52,0.57c-0.23,0.18-0.52,0.33-0.87,0.45c-0.35,0.12-0.76,0.18-1.21,0.18
						c-1.04,0-1.85-0.3-2.43-0.89c-0.58-0.6-0.87-1.4-0.87-2.42c0-0.48,0.07-0.92,0.22-1.33c0.14-0.41,0.35-0.76,0.62-1.05
						c0.27-0.29,0.61-0.52,1.01-0.67c0.4-0.16,0.84-0.23,1.33-0.23c0.63,0,1.17,0.13,1.63,0.4c0.45,0.26,0.79,0.61,1.01,1.03
						c0.22,0.43,0.34,0.86,0.34,1.3c0,0.41-0.12,0.67-0.35,0.79C-84.79,1223.37-85.12,1223.43-85.54,1223.43 M-88.71,1222.51h2.94
						c-0.04-0.55-0.19-0.97-0.45-1.24c-0.26-0.28-0.6-0.41-1.03-0.41c-0.4,0-0.73,0.14-1,0.42
						C-88.5,1221.55-88.66,1221.96-88.71,1222.51"/>
					<path class="st41" d="M-81.99,1220.65v0.19c0.3-0.38,0.62-0.65,0.95-0.83c0.32-0.18,0.7-0.27,1.11-0.27
						c0.5,0,0.96,0.13,1.38,0.39c0.42,0.26,0.75,0.63,0.99,1.13c0.24,0.5,0.37,1.08,0.37,1.76c0,0.5-0.07,0.96-0.21,1.38
						c-0.14,0.42-0.34,0.77-0.58,1.05c-0.25,0.28-0.53,0.5-0.87,0.65c-0.34,0.15-0.69,0.23-1.08,0.23c-0.46,0-0.85-0.09-1.17-0.28
						c-0.31-0.18-0.61-0.46-0.9-0.82v2.43c0,0.71-0.26,1.07-0.78,1.07c-0.31,0-0.51-0.09-0.61-0.27c-0.09-0.19-0.15-0.45-0.15-0.81
						v-7c0-0.31,0.07-0.54,0.2-0.69c0.13-0.15,0.32-0.23,0.55-0.23c0.23,0,0.42,0.08,0.56,0.23
						C-82.06,1220.13-81.99,1220.35-81.99,1220.65 M-78.81,1223c0-0.43-0.07-0.8-0.2-1.1c-0.13-0.31-0.31-0.54-0.54-0.7
						c-0.23-0.16-0.49-0.25-0.77-0.25c-0.45,0-0.82,0.18-1.13,0.53c-0.31,0.35-0.46,0.87-0.46,1.56c0,0.64,0.15,1.15,0.46,1.5
						c0.3,0.36,0.68,0.54,1.13,0.54c0.27,0,0.52-0.08,0.75-0.23c0.23-0.16,0.42-0.39,0.55-0.7
						C-78.88,1223.82-78.81,1223.44-78.81,1223"/>
					<path class="st41" d="M-75.55,1218.98c-0.23,0-0.42-0.07-0.58-0.21c-0.16-0.14-0.24-0.33-0.24-0.59c0-0.23,0.08-0.42,0.25-0.57
						c0.16-0.15,0.35-0.22,0.57-0.22c0.21,0,0.4,0.07,0.56,0.2c0.16,0.14,0.24,0.33,0.24,0.59c0,0.25-0.08,0.44-0.24,0.58
						C-75.14,1218.91-75.33,1218.98-75.55,1218.98 M-74.75,1220.65v4.69c0,0.32-0.08,0.57-0.23,0.73c-0.16,0.17-0.35,0.25-0.59,0.25
						c-0.24,0-0.43-0.08-0.58-0.25c-0.15-0.17-0.22-0.42-0.22-0.73v-4.64c0-0.32,0.08-0.56,0.22-0.72c0.15-0.17,0.34-0.24,0.58-0.24
						c0.24,0,0.43,0.08,0.59,0.24C-74.83,1220.14-74.75,1220.37-74.75,1220.65"/>
					<path class="st41" d="M-69.52,1225.59l-1.43-2.35l-0.88,0.83v1.29c0,0.31-0.08,0.55-0.25,0.72c-0.16,0.17-0.35,0.25-0.57,0.25
						c-0.25,0-0.45-0.08-0.59-0.25c-0.14-0.16-0.21-0.41-0.21-0.73v-6.91c0-0.36,0.07-0.63,0.21-0.82c0.14-0.19,0.34-0.28,0.6-0.28
						c0.25,0,0.45,0.09,0.59,0.26c0.15,0.17,0.22,0.42,0.22,0.75v3.93l1.82-1.91c0.23-0.23,0.4-0.4,0.52-0.49
						c0.12-0.09,0.26-0.13,0.43-0.13c0.2,0,0.37,0.06,0.51,0.19c0.13,0.13,0.2,0.29,0.2,0.48c0,0.24-0.22,0.56-0.66,0.95l-0.86,0.79
						l1.66,2.61c0.12,0.2,0.21,0.34,0.26,0.44c0.05,0.1,0.08,0.2,0.08,0.29c0,0.26-0.07,0.46-0.21,0.61
						c-0.14,0.15-0.33,0.22-0.55,0.22c-0.2,0-0.35-0.05-0.46-0.16C-69.19,1226.06-69.34,1225.86-69.52,1225.59"/>
					<path class="st41" d="M-66,1226.33c-0.24,0-0.45-0.08-0.63-0.24c-0.18-0.16-0.27-0.38-0.27-0.67c0-0.24,0.09-0.45,0.26-0.62
						c0.17-0.17,0.38-0.26,0.63-0.26c0.25,0,0.46,0.09,0.64,0.26c0.17,0.17,0.26,0.38,0.26,0.63c0,0.28-0.09,0.5-0.26,0.66
						C-65.56,1226.25-65.77,1226.33-66,1226.33"/>
					<path class="st41" d="M-57.94,1224.32c0,0.2-0.06,0.42-0.18,0.65c-0.12,0.23-0.31,0.45-0.55,0.66
						c-0.25,0.21-0.56,0.38-0.93,0.5c-0.38,0.13-0.8,0.19-1.27,0.19c-1,0-1.79-0.29-2.35-0.88c-0.56-0.58-0.84-1.37-0.84-2.35
						c0-0.67,0.13-1.25,0.39-1.77c0.25-0.51,0.63-0.9,1.11-1.18c0.49-0.28,1.07-0.42,1.75-0.42c0.42,0,0.81,0.06,1.16,0.18
						c0.35,0.12,0.65,0.28,0.89,0.47c0.24,0.2,0.43,0.4,0.56,0.62c0.13,0.22,0.19,0.43,0.19,0.62c0,0.19-0.07,0.36-0.21,0.49
						c-0.15,0.13-0.32,0.2-0.52,0.2c-0.14,0-0.25-0.04-0.34-0.1c-0.09-0.07-0.19-0.18-0.3-0.34c-0.2-0.3-0.4-0.53-0.62-0.67
						c-0.21-0.15-0.49-0.23-0.82-0.23c-0.48,0-0.86,0.19-1.16,0.56c-0.29,0.37-0.44,0.89-0.44,1.53c0,0.31,0.04,0.59,0.11,0.84
						c0.07,0.25,0.18,0.47,0.33,0.65c0.14,0.18,0.31,0.32,0.52,0.41c0.2,0.1,0.43,0.14,0.66,0.14c0.33,0,0.6-0.07,0.84-0.23
						c0.23-0.15,0.44-0.38,0.62-0.69c0.1-0.18,0.2-0.32,0.32-0.43c0.11-0.1,0.26-0.16,0.42-0.16c0.2,0,0.36,0.08,0.49,0.23
						C-58.01,1223.99-57.94,1224.15-57.94,1224.32"/>
					<path class="st41" d="M-50.95,1223.03c0,0.48-0.08,0.93-0.22,1.34c-0.15,0.41-0.37,0.76-0.66,1.05
						c-0.28,0.29-0.63,0.52-1.02,0.68c-0.4,0.15-0.84,0.23-1.34,0.23c-0.49,0-0.93-0.08-1.33-0.24c-0.39-0.16-0.73-0.38-1.02-0.68
						c-0.29-0.3-0.51-0.65-0.66-1.05c-0.14-0.4-0.22-0.85-0.22-1.33c0-0.49,0.08-0.94,0.22-1.35c0.15-0.41,0.37-0.76,0.65-1.05
						c0.28-0.29,0.62-0.51,1.02-0.67c0.4-0.16,0.84-0.23,1.33-0.23c0.49,0,0.94,0.08,1.34,0.24c0.4,0.16,0.74,0.38,1.03,0.67
						c0.29,0.3,0.5,0.64,0.65,1.04C-51.02,1222.1-50.95,1222.54-50.95,1223.03 M-52.57,1223.03c0-0.66-0.15-1.18-0.44-1.54
						c-0.29-0.37-0.68-0.55-1.17-0.55c-0.32,0-0.6,0.08-0.84,0.25c-0.24,0.16-0.43,0.41-0.56,0.73c-0.13,0.32-0.2,0.7-0.2,1.12
						c0,0.42,0.06,0.79,0.19,1.11c0.13,0.32,0.31,0.56,0.55,0.73c0.24,0.17,0.52,0.25,0.85,0.25c0.49,0,0.88-0.18,1.17-0.56
						C-52.72,1224.19-52.57,1223.68-52.57,1223.03"/>
					<path class="st41" d="M-44.76,1223.15v2.15c0,0.34-0.08,0.59-0.23,0.77c-0.16,0.17-0.36,0.26-0.61,0.26
						c-0.25,0-0.45-0.08-0.59-0.26c-0.15-0.17-0.23-0.43-0.23-0.77v-2.58c0-0.41-0.01-0.73-0.04-0.95c-0.03-0.22-0.1-0.41-0.23-0.55
						c-0.12-0.15-0.32-0.22-0.58-0.22c-0.53,0-0.88,0.18-1.05,0.55c-0.17,0.36-0.25,0.88-0.25,1.57v2.19c0,0.34-0.08,0.59-0.23,0.76
						c-0.16,0.17-0.35,0.26-0.6,0.26c-0.25,0-0.45-0.09-0.6-0.26c-0.16-0.17-0.24-0.43-0.24-0.76v-4.64c0-0.31,0.07-0.54,0.21-0.69
						c0.14-0.16,0.33-0.24,0.56-0.24c0.22,0,0.41,0.08,0.56,0.22c0.15,0.15,0.22,0.35,0.22,0.62v0.15c0.28-0.33,0.58-0.58,0.9-0.74
						c0.32-0.16,0.68-0.24,1.07-0.24c0.41,0,0.76,0.08,1.05,0.24c0.29,0.16,0.53,0.41,0.73,0.74c0.27-0.33,0.57-0.58,0.88-0.74
						c0.31-0.16,0.66-0.24,1.04-0.24c0.44,0,0.83,0.09,1.15,0.26c0.32,0.17,0.56,0.42,0.72,0.75c0.14,0.3,0.21,0.76,0.21,1.39v3.16
						c0,0.34-0.08,0.59-0.23,0.77c-0.15,0.17-0.36,0.26-0.61,0.26c-0.25,0-0.45-0.09-0.6-0.26c-0.16-0.17-0.23-0.43-0.23-0.76v-2.73
						c0-0.35-0.01-0.63-0.04-0.84c-0.03-0.21-0.11-0.39-0.24-0.53c-0.13-0.14-0.33-0.21-0.6-0.21c-0.21,0-0.42,0.07-0.61,0.19
						c-0.19,0.12-0.34,0.3-0.45,0.51C-44.7,1221.97-44.76,1222.46-44.76,1223.15"/>
				</g>
				<g>
					<path class="st41" d="M-120.2,1222.64c0,0,0-0.01,0-0.01C-120.21,1222.63-120.21,1222.64-120.2,1222.64z"/>
					<path class="st41" d="M-120.12,1223.16C-120.12,1223.16-120.12,1223.16-120.12,1223.16c-0.03-0.15-0.05-0.29-0.07-0.44
						C-120.18,1222.86-120.15,1223.01-120.12,1223.16z"/>
					<path class="st41" d="M-119.59,1224.66c0-0.01-0.01-0.01-0.01-0.02C-119.59,1224.65-119.59,1224.65-119.59,1224.66z"/>
					<path class="st41" d="M-119.64,1224.56c-0.01-0.03-0.03-0.06-0.04-0.08C-119.66,1224.51-119.65,1224.53-119.64,1224.56z"/>
					<path class="st41" d="M-119.97,1223.74c0.08,0.25,0.17,0.49,0.29,0.72C-119.8,1224.22-119.89,1223.98-119.97,1223.74
						C-119.97,1223.74-119.97,1223.74-119.97,1223.74z"/>
					<path class="st41" d="M-113.93,1216.43c0.31,0,0.54,0.03,0.81,0.07l0.08-0.48c0,0-0.73-0.23-1.69-0.15l-0.08-0.26
						c0.3-0.06,0.52-0.33,0.52-0.65c0-0.36-0.3-0.66-0.66-0.66c-0.36,0-0.66,0.29-0.66,0.66c0,0.32,0.22,0.58,0.52,0.65l0.08,0.29
						c-1.02,0.14-1.83,0.54-1.83,0.54l0.14,0.44c0.62-0.21,1.15-0.33,1.64-0.38C-114.58,1216.45-114.22,1216.43-113.93,1216.43z"/>
					<path class="st41" d="M-119.6,1218.84L-119.6,1218.84c0.03-0.04,0.05-0.07,0.07-0.09l-0.2-0.14l-0.3-0.22
						c-0.02,0.02-0.5,0.47-0.88,1.28c-0.02-0.03-0.03-0.05-0.06-0.07c-0.11-0.12-0.27-0.19-0.47-0.18c0,0-0.01,0-0.01,0
						c-0.12,0-0.21-0.04-0.27-0.09c0.06-0.07,0.09-0.16,0.09-0.26c0-0.23-0.19-0.42-0.42-0.42c-0.23,0-0.42,0.19-0.42,0.42
						c0,0.23,0.19,0.42,0.42,0.42c0.04,0,0.07-0.01,0.1-0.01c0.1,0.11,0.27,0.21,0.5,0.21c0.12,0,0.21,0.03,0.27,0.1
						c0.07,0.08,0.09,0.18,0.1,0.27c0,0,0,0,0,0c-0.27,0.74-0.19,1.67-0.19,1.67l0.66,0.03c0.01-0.34,0.06-0.93,0.23-1.39
						C-120.03,1219.43-119.62,1218.86-119.6,1218.84z"/>
					<path class="st41" d="M-108.18,1216.98c-0.23,0-0.42,0.19-0.42,0.42c0,0.04,0.01,0.07,0.01,0.1c-0.11,0.1-0.21,0.27-0.21,0.51
						c0,0.12-0.03,0.21-0.1,0.27c-0.05,0.05-0.12,0.07-0.19,0.09c-0.49-0.69-1.1-1.11-1.1-1.11l-0.47,0.51
						c0.36,0.33,0.72,0.73,1.08,1.24c0.25,0.35,0.5,0.81,0.71,1.26l0.64-0.3c0,0-0.29-0.72-0.7-1.37c0.07-0.03,0.14-0.06,0.21-0.12
						c0.13-0.11,0.19-0.27,0.18-0.47c0-0.13,0.04-0.22,0.09-0.28c0.07,0.05,0.16,0.09,0.26,0.09c0.23,0,0.42-0.19,0.42-0.42
						C-107.76,1217.17-107.95,1216.98-108.18,1216.98z"/>
					<path class="st41" d="M-109.84,1222.73c-0.88,0.43-2.33,1-4.24,1.26c-0.75,0.1-1.47,0.14-2.14,0.14
						c-0.87,0-1.64-0.06-2.23-0.14c-0.67-0.08-1.2-0.19-1.52-0.26c0.08,0.24,0.17,0.49,0.28,0.72c0,0.01,0,0.01,0.01,0.02
						c0.01,0.03,0.03,0.06,0.04,0.08c0.01,0.03,0.03,0.05,0.04,0.08c0,0.01,0.01,0.01,0.01,0.02c0.19,0.36,0.42,0.68,0.68,0.97
						c0.9,0.98,1.82,1.14,1.83,1.14l0.01,0l0.01,0c0.01,0,0.82,0.27,2.06,0.27c1.22,0,2.41-0.25,3.55-0.73
						c0.84-0.43,1.64-1.09,2.03-1.67c0.31-0.45,0.53-0.93,0.66-1.43c0.07-0.27,0.12-0.69,0.09-1.14
						C-108.92,1222.24-109.31,1222.47-109.84,1222.73z"/>
					<path class="st41" d="M-119.32,1219.05c-0.03,0.04-0.41,0.58-0.71,1.41c-0.23,0.62-0.22,1.53-0.22,1.54v0
						c0,0.21,0.01,0.42,0.04,0.63c0,0,0,0.01,0,0.01c0,0.03,0.01,0.05,0.01,0.08c0.02,0.14,0.04,0.29,0.07,0.44
						c0.44,0.11,3.05,0.72,5.97,0.31c1.83-0.25,3.22-0.8,4.06-1.2c0.7-0.34,1.15-0.65,1.33-0.77c-0.17-0.64-0.65-1.65-1.09-2.28
						c-1.25-1.79-2.6-2.25-3.3-2.36c-0.26-0.04-0.48-0.07-0.78-0.07c-0.28,0-0.63,0.02-1.09,0.07c-0.46,0.05-0.98,0.17-1.58,0.37
						c-0.84,0.28-1.6,0.72-2.2,1.28l-0.02,0.02C-118.92,1218.6-119.1,1218.78-119.32,1219.05z M-111.65,1218.63
						c0.6,0,1.09,0.49,1.09,1.09c0,0.6-0.49,1.09-1.09,1.09c-0.6,0-1.09-0.49-1.09-1.09
						C-112.74,1219.12-112.25,1218.63-111.65,1218.63z M-116.8,1218.59c0.97,0,1.76,0.79,1.76,1.76s-0.79,1.76-1.76,1.76
						c-0.97,0-1.76-0.79-1.76-1.76S-117.77,1218.59-116.8,1218.59z"/>
				</g>
			</g>
		</g>
	</g>
</g>
</svg>
