<?xml version="1.0" encoding="utf-8"?>
<!-- Generator: Adobe Illustrator 23.0.0, SVG Export Plug-In . SVG Version: 6.00 Build 0)  -->
<svg version="1.1" id="Layer_1" xmlns="http://www.w3.org/2000/svg" xmlns:xlink="http://www.w3.org/1999/xlink" x="0px" y="0px"
	 viewBox="0 0 4.21 4.21" style="enable-background:new 0 0 4.21 4.21;" xml:space="preserve">
<style type="text/css">
	.st0{fill:url(#SVGID_1_);}
	.st1{fill:url(#SVGID_2_);}
	.st2{fill:#FFFFFF;}
	.st3{fill:url(#SVGID_3_);}
	.st4{fill-rule:evenodd;clip-rule:evenodd;fill:#FFFFFF;}
	.st5{fill:url(#SVGID_4_);}
	.st6{fill-rule:evenodd;clip-rule:evenodd;fill:#FCFCFC;}
	.st7{fill:#343433;}
	.st8{fill:#4E525B;}
	.st9{fill:#444851;}
	.st10{fill-rule:evenodd;clip-rule:evenodd;fill:#444851;}
	.st11{fill:#999999;}
</style>
<g>
	<path class="st7" d="M4.2,2.1C4.2,3.26,3.26,4.2,2.1,4.2c-1.16,0-2.1-0.94-2.1-2.09c0-1.16,0.94-2.1,2.1-2.1
		C3.26,0.01,4.2,0.95,4.2,2.1z"/>
	<g>
		<path class="st4" d="M0.84,2.96c0.2,0.01,0.39-0.02,0.57-0.1c0.08-0.04,0.16-0.08,0.23-0.14c-0.09,0-0.17-0.02-0.24-0.06
			C1.28,2.6,1.19,2.5,1.14,2.37C1.13,2.34,1.13,2.34,1.16,2.34c0.09,0.01,0.15,0.01,0.2-0.01C1.31,2.31,1.27,2.3,1.23,2.28
			c-0.18-0.1-0.28-0.26-0.3-0.47c0-0.02,0-0.03,0.03-0.02C1.03,1.83,1.1,1.84,1.18,1.85C1.14,1.82,1.11,1.79,1.08,1.76
			C0.93,1.6,0.9,1.34,1,1.14c0.01-0.03,0.02-0.03,0.04-0.01C1.29,1.43,1.61,1.61,2,1.67c0.04,0.01,0.08,0.01,0.12,0.02
			c0.03,0,0.03-0.01,0.03-0.03C2.1,1.43,2.21,1.2,2.42,1.08C2.63,0.96,2.9,1,3.07,1.16C3.09,1.18,3.1,1.18,3.13,1.18
			c0.1-0.02,0.2-0.06,0.29-0.11c0.01,0,0.01-0.01,0.02-0.01C3.4,1.18,3.32,1.27,3.21,1.35c0.11-0.01,0.2-0.04,0.3-0.08
			c0,0.01-0.01,0.02-0.01,0.03C3.43,1.39,3.35,1.47,3.26,1.54C3.25,1.55,3.24,1.56,3.24,1.59c0.01,0.4-0.12,0.76-0.38,1.08
			C2.62,2.95,2.31,3.12,1.94,3.18c-0.39,0.06-0.76-0.01-1.1-0.21C0.84,2.96,0.84,2.96,0.84,2.96z"/>
	</g>
</g>
</svg>
