<?xml version="1.0" encoding="utf-8"?>
<!-- Generator: Adobe Illustrator 23.0.0, SVG Export Plug-In . SVG Version: 6.00 Build 0)  -->
<svg version="1.1" id="Layer_1" xmlns="http://www.w3.org/2000/svg" xmlns:xlink="http://www.w3.org/1999/xlink" x="0px" y="0px"
	 viewBox="0 0 4.21 4.21" style="enable-background:new 0 0 4.21 4.21;" xml:space="preserve">
<style type="text/css">
	.st0{fill:url(#SVGID_1_);}
	.st1{fill:url(#SVGID_2_);}
	.st2{fill:#FFFFFF;}
	.st3{fill:url(#SVGID_3_);}
	.st4{fill-rule:evenodd;clip-rule:evenodd;fill:#FFFFFF;}
	.st5{fill:url(#SVGID_4_);}
	.st6{fill-rule:evenodd;clip-rule:evenodd;fill:#FCFCFC;}
	.st7{fill:#343433;}
	.st8{fill:#4E525B;}
	.st9{fill:#444851;}
	.st10{fill-rule:evenodd;clip-rule:evenodd;fill:#444851;}
	.st11{fill:#999999;}
</style>
<g>
	<path class="st7" d="M4.2,2.1c0,1.1-0.84,2-1.91,2.09C2.23,4.2,2.17,4.2,2.11,4.2c-0.16,0-0.31-0.02-0.45-0.05
		C0.71,3.94,0.01,3.1,0.01,2.1c0-1.16,0.94-2.09,2.1-2.09C3.26,0.01,4.2,0.94,4.2,2.1z"/>
	<g>
		<path class="st2" d="M2.34,1.66C2.38,1.63,2.44,1.6,2.53,1.6c0.09,0,0.19,0.01,0.29,0.04L2.9,1.2C2.73,1.14,2.56,1.12,2.38,1.12
			c-0.18,0-0.32,0.03-0.43,0.09C1.84,1.28,1.76,1.35,1.72,1.45C1.67,1.54,1.65,1.7,1.65,1.9v0.17H1.31v0.5h0.35v1.58
			C1.8,4.18,1.95,4.2,2.11,4.2c0.06,0,0.12,0,0.18-0.01V2.57h0.46v-0.5H2.28V1.91C2.28,1.78,2.3,1.71,2.34,1.66z"/>
	</g>
</g>
</svg>
