<?xml version="1.0" encoding="utf-8"?>
<!-- Generator: Adobe Illustrator 23.0.0, SVG Export Plug-In . SVG Version: 6.00 Build 0)  -->
<svg version="1.1" id="Layer_1" xmlns="http://www.w3.org/2000/svg" xmlns:xlink="http://www.w3.org/1999/xlink" x="0px" y="0px"
	 viewBox="0 0 4.21 4.21" style="enable-background:new 0 0 4.21 4.21;" xml:space="preserve">
<style type="text/css">
	.st0{fill:url(#SVGID_1_);}
	.st1{fill:url(#SVGID_2_);}
	.st2{fill:#FFFFFF;}
	.st3{fill:url(#SVGID_3_);}
	.st4{fill-rule:evenodd;clip-rule:evenodd;fill:#FFFFFF;}
	.st5{fill:url(#SVGID_4_);}
	.st6{fill-rule:evenodd;clip-rule:evenodd;fill:#FCFCFC;}
	.st7{fill:#343433;}
	.st8{fill:#4E525B;}
	.st9{fill:#444851;}
	.st10{fill-rule:evenodd;clip-rule:evenodd;fill:#444851;}
	.st11{fill:#999999;}
</style>
<g>
	<path class="st7" d="M4.2,2.1c0,1.16-0.94,2.1-2.1,2.1c-1.16,0-2.09-0.94-2.09-2.1s0.94-2.1,2.09-2.1C3.26,0.01,4.2,0.95,4.2,2.1z"
		/>
	<g>
		<path class="st4" d="M2.94,0.97c-0.55,0-1.11,0-1.67,0c-0.2,0-0.3,0.1-0.3,0.3c0,0.27,0,0.55,0,0.83c0,0.28,0,0.56,0,0.83
			c0,0.19,0.11,0.3,0.29,0.3c0.56,0,1.12,0,1.68,0c0.19,0,0.3-0.11,0.3-0.3c0-0.56,0-1.11,0-1.67C3.24,1.08,3.13,0.97,2.94,0.97z
			 M2.75,1.23c0.22,0,0.22,0,0.22,0.22c0,0.22,0,0.22-0.22,0.22c-0.22,0-0.22,0-0.22-0.22C2.53,1.23,2.53,1.23,2.75,1.23z
			 M2.11,1.66c0.24,0,0.44,0.2,0.44,0.44c0,0.24-0.2,0.44-0.44,0.44C1.86,2.54,1.66,2.34,1.66,2.1C1.67,1.86,1.87,1.66,2.11,1.66z
			 M2.98,2.84c0,0.11-0.03,0.14-0.13,0.14c-0.25,0-0.49,0-0.74,0c-0.25,0-0.49,0-0.74,0c-0.1,0-0.13-0.03-0.13-0.14
			c0-0.27,0-0.55,0-0.82c0-0.08,0.02-0.1,0.09-0.09c0.1,0.01,0.11,0,0.09,0.1c-0.04,0.35,0.2,0.69,0.55,0.76
			C2.32,2.85,2.67,2.64,2.77,2.3C2.8,2.19,2.81,2.08,2.78,1.98c-0.01-0.04,0-0.05,0.04-0.05c0.16-0.01,0.16-0.01,0.16,0.15
			C2.98,2.33,2.98,2.59,2.98,2.84z"/>
	</g>
</g>
</svg>
