<?xml version="1.0" encoding="utf-8"?>
<!-- Generator: Adobe Illustrator 23.0.0, SVG Export Plug-In . SVG Version: 6.00 Build 0)  -->
<svg version="1.1" id="Layer_1" xmlns="http://www.w3.org/2000/svg" xmlns:xlink="http://www.w3.org/1999/xlink" x="0px" y="0px"
	 viewBox="0 0 4.21 4.21" style="enable-background:new 0 0 4.21 4.21;" xml:space="preserve">
<style type="text/css">
	.st0{fill:url(#SVGID_1_);}
	.st1{fill:url(#SVGID_2_);}
	.st2{fill:#FFFFFF;}
	.st3{fill:url(#SVGID_3_);}
	.st4{fill-rule:evenodd;clip-rule:evenodd;fill:#FFFFFF;}
	.st5{fill:url(#SVGID_4_);}
	.st6{fill-rule:evenodd;clip-rule:evenodd;fill:#FCFCFC;}
	.st7{fill:#343433;}
	.st8{fill:#4E525B;}
	.st9{fill:#444851;}
	.st10{fill-rule:evenodd;clip-rule:evenodd;fill:#444851;}
	.st11{fill:#999999;}
</style>
<g>
	<path class="st7" d="M4.2,2.1c0,1.16-0.94,2.1-2.1,2.1c-1.16,0-2.09-0.94-2.09-2.1c0-1.16,0.94-2.1,2.09-2.1
		C3.26,0.01,4.2,0.95,4.2,2.1z"/>
	<g>
		<path class="st4" d="M3.35,1.8C3.21,1.22,2.71,0.83,2.1,0.82c-0.08,0-0.17,0.01-0.24,0.03C1.01,1.01,0.58,1.95,0.99,2.7
			C1,2.72,1,2.74,1,2.76C0.94,2.96,0.88,3.16,0.83,3.36C0.82,3.39,0.82,3.39,0.86,3.38c0.21-0.06,0.41-0.11,0.62-0.16
			c0.02,0,0.03,0,0.05,0C1.78,3.36,2.06,3.4,2.36,3.34C3.05,3.21,3.51,2.5,3.35,1.8z M2.28,3.14C2.22,3.15,2.16,3.15,2.13,3.15
			C1.91,3.15,1.73,3.1,1.56,3C1.54,2.99,1.52,2.98,1.5,2.99C1.38,3.02,1.27,3.05,1.15,3.08c-0.02,0.01-0.03,0-0.02-0.02
			c0.03-0.1,0.06-0.21,0.09-0.32c0.01-0.03,0.01-0.05-0.01-0.08C0.98,2.29,0.99,1.82,1.25,1.48c0.27-0.36,0.64-0.51,1.08-0.41
			c0.43,0.09,0.71,0.37,0.81,0.8C3.28,2.45,2.88,3.04,2.28,3.14z"/>
		<path class="st4" d="M2.44,2.7c-0.04,0-0.09,0-0.13-0.02C2.01,2.6,1.79,2.42,1.61,2.18c-0.07-0.09-0.13-0.19-0.15-0.3
			C1.44,1.75,1.48,1.63,1.58,1.54C1.61,1.5,1.71,1.49,1.75,1.51c0.01,0.01,0.02,0.02,0.03,0.03c0.04,0.09,0.07,0.17,0.11,0.26
			c0.01,0.02,0,0.04-0.01,0.05C1.87,1.9,1.84,1.93,1.81,1.96C1.78,1.99,1.78,2.01,1.8,2.04c0.1,0.17,0.25,0.3,0.44,0.37
			C2.26,2.42,2.28,2.41,2.3,2.39c0.03-0.04,0.06-0.08,0.1-0.12c0.02-0.03,0.04-0.03,0.07-0.02c0.06,0.03,0.12,0.06,0.18,0.08
			c0.02,0.01,0.03,0.01,0.04,0.02c0.06,0.03,0.06,0.04,0.06,0.1C2.74,2.6,2.64,2.67,2.52,2.7C2.49,2.7,2.46,2.7,2.44,2.7z"/>
	</g>
</g>
</svg>
